<?xml version="1.0" encoding="UTF-8"?>
<svg version="1.1" xmlns="http://www.w3.org/2000/svg" width="483" height="483">
<path d="M0 0 C20.28542666 -2.37018605 20.28542666 -2.37018605 28.55908203 4.09155273 C31.17261562 6.40888585 33.70394189 8.79048501 36.18261719 11.25146484 C38.98368699 13.94642211 42.03695876 16.2715513 45.125 18.625 C46.27973964 19.52594357 47.43339376 20.42828024 48.5859375 21.33203125 C49.43430176 21.99452881 49.43430176 21.99452881 50.29980469 22.67041016 C51.98629209 23.98928011 53.66952693 25.31217704 55.3515625 26.63671875 C55.91053223 27.07669189 56.46950195 27.51666504 57.04541016 27.9699707 C58.17844342 28.86234394 59.31093408 29.75540656 60.44287109 30.64916992 C63.87551772 33.35311168 67.33323113 36.02031206 70.8125 38.6640625 C71.63137695 39.29014404 72.45025391 39.91622559 73.29394531 40.5612793 C74.90302254 41.79047995 76.51680781 43.0135475 78.13574219 44.22973633 C78.86954102 44.79200928 79.60333984 45.35428223 80.359375 45.93359375 C81.01389648 46.42915771 81.66841797 46.92472168 82.34277344 47.43530273 C84.9217043 49.87024203 85.88256018 52.09598653 86.3359375 55.5859375 C86.39613307 59.88390152 86.30996155 63.23247617 84.6875 67.25 C81.57957287 70.43020451 78.37037595 72.4747531 74.57421875 74.765625 C70.01414594 77.55593951 65.67849141 80.66853661 61.3125 83.75 C54.56078641 88.50554934 47.79114136 93.22835654 40.95629883 97.86376953 C37.33303732 100.33785715 33.78982501 102.89002505 30.2890625 105.53515625 C29.49129395 106.13191162 28.69352539 106.72866699 27.87158203 107.34350586 C26.33366185 108.49876668 24.80527252 109.66686902 23.28857422 110.84985352 C18.44468088 114.47417719 15.09633756 115.92985386 9 116 C6.609375 115.50390625 6.609375 115.50390625 4.75 114.5625 C4.12609375 114.27503906 3.5021875 113.98757812 2.859375 113.69140625 C-1.18970103 110.0081081 -2.80175539 106.05839891 -3.31542969 100.72485352 C-3.3930799 96.97520531 -3.34906041 93.24905566 -3.25 89.5 C-3.23195312 88.200625 -3.21390625 86.90125 -3.1953125 85.5625 C-3.14842615 82.37422849 -3.08280893 79.187507 -3 76 C-42.45890236 81.73928936 -74.72807099 94.45575651 -104 122 C-104.71285156 122.63679688 -105.42570312 123.27359375 -106.16015625 123.9296875 C-133.04868534 149.01263478 -149.90636177 189.71826163 -152 226 C-153.39646216 269.53548354 -144.32483085 312.3244717 -115 346 C-114.27941406 346.83015625 -113.55882813 347.6603125 -112.81640625 348.515625 C-110.57858633 351.04432272 -108.30038568 353.52818176 -106 356 C-105.34902344 356.71671875 -104.69804688 357.4334375 -104.02734375 358.171875 C-96.03907344 366.60650338 -86.40423838 373.88690938 -76.65625 380.1953125 C-72.51293263 383.01033107 -69.61100182 386.16699454 -68 391 C-67.32934142 398.42122198 -67.33588037 404.92488619 -72 411 C-76.35214681 415.76753609 -80.44912829 419.06416118 -87 420 C-97.06057602 419.83773264 -104.61927007 413.85782309 -112.3125 407.875 C-113.04742676 407.3073291 -113.78235352 406.7396582 -114.53955078 406.15478516 C-121.02393462 401.08810863 -127.08180037 395.71729894 -133 390 C-133.92167969 389.12988281 -134.84335938 388.25976562 -135.79296875 387.36328125 C-142.95130036 380.44726269 -149.06548931 372.97252745 -155 365 C-155.63679688 364.14664062 -156.27359375 363.29328125 -156.9296875 362.4140625 C-177.37322304 334.0569003 -190.76784687 300.73013244 -195 266 C-195.0920874 265.28046143 -195.1841748 264.56092285 -195.27905273 263.81958008 C-198.72138017 233.93968306 -195.5193042 203.47377732 -186 175 C-185.64035156 173.9167041 -185.64035156 173.9167041 -185.2734375 172.81152344 C-181.9801989 163.08108905 -177.74099734 153.93977794 -172.96728516 144.85351562 C-172.07671019 143.14699237 -171.21468933 141.42564797 -170.35546875 139.703125 C-161.99349651 123.34539829 -150.30684491 108.90910388 -138.0625 95.3125 C-137.5893335 94.78229248 -137.11616699 94.25208496 -136.62866211 93.70581055 C-135.46125411 92.43063528 -134.2350816 91.2097466 -133 90 C-132.34 90 -131.68 90 -131 90 C-131 89.34 -131 88.68 -131 88 C-128.04550746 85.25654264 -124.83294551 82.82402116 -121.66796875 80.328125 C-120.01152939 79.00918031 -118.37948548 77.66454311 -116.75 76.3125 C-84.90439427 50.17559688 -43.80967491 35.88125394 -3 33 C-3.01047363 32.27409668 -3.02094727 31.54819336 -3.03173828 30.80029297 C-3.0734696 27.49189759 -3.09938064 24.18355776 -3.125 20.875 C-3.14175781 19.73289062 -3.15851563 18.59078125 -3.17578125 17.4140625 C-3.18222656 16.30546875 -3.18867188 15.196875 -3.1953125 14.0546875 C-3.20578613 13.03874512 -3.21625977 12.02280273 -3.22705078 10.97607422 C-2.92234525 6.98213832 -1.78605717 3.57211434 0 0 Z " fill="currentColor" transform="translate(226,0)"/>
<path d="M0 0 C3.40589291 1.15026037 6.08710104 2.91446226 9 5 C10.35158203 5.94746094 10.35158203 5.94746094 11.73046875 6.9140625 C28.27266309 18.93282985 43.52665835 32.76112125 56 49 C56.64751221 49.84087158 56.64751221 49.84087158 57.30810547 50.69873047 C91.04679286 94.78538588 106.70143244 149.96536692 99.39794922 205.24853516 C91.78165077 257.90846368 65.93912907 306.70022216 24 340 C22.53240234 341.19302734 22.53240234 341.19302734 21.03515625 342.41015625 C1.27983703 358.12971038 -22.51935278 371.5251862 -47 378 C-48.35230713 378.36665771 -48.35230713 378.36665771 -49.73193359 378.74072266 C-63.77109395 382.49430316 -77.49580674 385.06006345 -92 386 C-91.9685791 387.22517334 -91.9685791 387.22517334 -91.93652344 388.47509766 C-91.8531487 392.19160555 -91.80127012 395.90791633 -91.75 399.625 C-91.71648437 400.91019531 -91.68296875 402.19539063 -91.6484375 403.51953125 C-91.52522833 415.40921574 -91.52522833 415.40921574 -96 420 C-101.01439611 422.50719806 -107.57820589 421.71815473 -113 421 C-115.88697113 419.55433065 -117.80956949 417.87775498 -120.16015625 415.66796875 C-123.82187064 412.22787119 -127.76370981 409.23929649 -131.75 406.1875 C-133.32260806 404.96872875 -134.89422738 403.7486806 -136.46484375 402.52734375 C-137.61509033 401.63378174 -137.61509033 401.63378174 -138.78857422 400.72216797 C-141.97223317 398.24286456 -145.143138 395.7475364 -148.3125 393.25 C-152.76810322 389.73948598 -157.24816033 386.26349131 -161.75 382.8125 C-162.8153191 381.99246664 -163.88042823 381.17216044 -164.9453125 380.3515625 C-166.93547741 378.81949181 -168.93006834 377.29314806 -170.9296875 375.7734375 C-171.81914062 375.08507812 -172.70859375 374.39671875 -173.625 373.6875 C-174.40101563 373.09324219 -175.17703125 372.49898438 -175.9765625 371.88671875 C-179.6120868 368.49683799 -181.4478325 365.17234922 -181.625 360.1875 C-181.30352983 353.98832251 -178.4200184 351.10940945 -174 347 C-170.38008226 344.22594596 -166.5934381 341.76413744 -162.75 339.3125 C-160.59574942 337.90717659 -158.44211062 336.50091496 -156.2890625 335.09375 C-155.22461914 334.4028125 -154.16017578 333.711875 -153.06347656 333 C-148.71243089 330.15940658 -144.41163667 327.24912154 -140.125 324.3125 C-139.36912598 323.79623047 -138.61325195 323.27996094 -137.83447266 322.74804688 C-131.41886404 318.34136621 -125.11607797 313.78181012 -118.87158203 309.13598633 C-110.35359061 302.87391479 -110.35359061 302.87391479 -104.5 303.1875 C-99.57372752 304.33109897 -97.0400241 305.69194574 -93.87988281 309.66650391 C-91.70069349 313.5307443 -91.53412209 315.746142 -91.609375 320.1484375 C-91.61503479 320.80582916 -91.62069458 321.46322083 -91.62652588 322.14053345 C-91.64873725 324.21946191 -91.6988958 326.29660163 -91.75 328.375 C-91.77008511 329.79294368 -91.78833235 331.21091465 -91.8046875 332.62890625 C-91.84854933 336.08650877 -91.91746563 339.54307951 -92 343 C-55.39822159 336.88396884 -22.57532406 325.7327149 5 300 C5.56348145 299.4750293 6.12696289 298.95005859 6.70751953 298.40917969 C19.10786067 286.72362735 28.74124463 273.87856979 37 259 C37.34804688 258.37786621 37.69609375 257.75573242 38.0546875 257.11474609 C51.40736811 232.90046297 57.22291709 206.09622661 57.25 178.625 C57.25100708 177.91546173 57.25201416 177.20592346 57.25305176 176.47488403 C57.24213408 165.0792367 56.5397087 154.13437036 54 143 C53.73316406 141.76636719 53.46632813 140.53273437 53.19140625 139.26171875 C46.80489194 112.83574177 33.57683874 84.96118765 13.76953125 65.84765625 C12 64 12 64 12 62 C11.39800781 61.73058594 10.79601562 61.46117187 10.17578125 61.18359375 C7.98087936 59.98959865 6.83102449 58.91429481 5.1875 57.0625 C1.64778246 53.4004596 -2.26208262 50.47443914 -6.375 47.5 C-7.03129395 47.02336914 -7.68758789 46.54673828 -8.36376953 46.05566406 C-11.17259009 44.02267962 -13.99048857 42.00665144 -16.83203125 40.01953125 C-21.82791938 36.39896224 -25.37618144 33.10000263 -27 27 C-28.04355993 20.22689467 -27.29133541 14.84444505 -23.63671875 9.01171875 C-17.07734872 0.9494859 -10.09380116 -1.06316369 0 0 Z " fill="currentColor" transform="translate(352,62)"/>
<path d="M0 0 C2.9385807 2.3621427 3.02737318 4.18751559 3.57421875 7.93359375 C3.6284326 9.43439176 3.66570024 10.93588135 3.6875 12.4375 C3.76774414 13.56381836 3.76774414 13.56381836 3.84960938 14.71289062 C3.88845063 17.03723312 3.75264808 18.79802623 3 21 C0.71859721 23.35201764 -2.0844395 24.56367953 -5 26 C-7.21410942 27.22998454 -9.42474964 28.4662247 -11.6328125 29.70703125 C-14.12704522 31.08130666 -16.62619148 32.446566 -19.125 33.8125 C-21.60764169 35.17159383 -24.08942029 36.53224652 -26.5703125 37.89453125 C-27.17772278 38.22800568 -27.78513306 38.5614801 -28.41094971 38.90505981 C-34.98529245 42.52518092 -41.49602947 46.25530864 -48 50 C-47.26700684 50.39155273 -46.53401367 50.78310547 -45.77880859 51.18652344 C-38.44375046 55.10633457 -31.112879 59.03384902 -23.78564453 62.96826172 C-21.36839376 64.26613459 -18.94997516 65.56173742 -16.53076172 66.85595703 C-13.45497033 68.50256485 -10.38318272 70.15638983 -7.3125 71.8125 C-6.38163574 72.30911133 -5.45077148 72.80572266 -4.49169922 73.31738281 C-3.64494629 73.7759668 -2.79819336 74.23455078 -1.92578125 74.70703125 C-1.18755127 75.1038208 -0.44932129 75.50061035 0.3112793 75.90942383 C2 77 2 77 3 79 C3.15071519 81.82590981 3.23132601 84.61072462 3.25 87.4375 C3.270625 88.21416016 3.29125 88.99082031 3.3125 89.79101562 C3.35236612 95.57658641 3.35236612 95.57658641 1.59179688 97.69213867 C-0.39842792 99.32735865 -1.41076155 99.84391116 -4 100 C-6.890625 98.8828125 -6.890625 98.8828125 -10.25 97.125 C-10.86713867 96.80402344 -11.48427734 96.48304688 -12.12011719 96.15234375 C-14.08970254 95.11853424 -16.04642305 94.06372265 -18 93 C-18.59296875 92.67741211 -19.1859375 92.35482422 -19.796875 92.02246094 C-31.26123234 85.73862348 -42.53077706 79.09437941 -53.84765625 72.55078125 C-59.7997826 69.11102809 -65.76986857 65.70418693 -71.75390625 62.3203125 C-74 61 -74 61 -75 60 C-75.33347025 56.73916754 -75.3249199 53.4631936 -75.375 50.1875 C-75.41238281 49.27162109 -75.44976562 48.35574219 -75.48828125 47.41210938 C-75.57614882 40.70976631 -75.57614882 40.70976631 -73.1640625 37.73828125 C-72.11992188 37.16464844 -71.07578125 36.59101563 -70 36 C-68.85023682 35.34874146 -68.85023682 35.34874146 -67.67724609 34.68432617 C-64.80659241 33.07936741 -61.90741027 31.53731469 -59 30 C-51.00503581 25.72141422 -43.05344027 21.38679582 -35.1875 16.875 C-34.33986084 16.39063477 -33.49222168 15.90626953 -32.61889648 15.40722656 C-28.27817424 12.91730944 -23.96601848 10.38717441 -19.6796875 7.8046875 C-18.38961792 7.03535889 -18.38961792 7.03535889 -17.07348633 6.25048828 C-15.4467275 5.27838719 -13.82628089 4.29561178 -12.21362305 3.30029297 C-8.0951548 0.8476862 -4.93883682 -1.01831687 0 0 Z " fill="currentColor" transform="translate(196,191)"/>
<path d="M0 0 C6.30627172 1.84862749 11.7027552 4.28974046 17.3125 7.6875 C18.97066743 8.66912971 20.62957005 9.64951821 22.2890625 10.62890625 C23.19172852 11.16402832 24.09439453 11.69915039 25.02441406 12.25048828 C30.10829463 15.23958314 35.23245119 18.15819364 40.3553772 21.07965088 C42.17945321 22.12040876 44.00232682 23.16324532 45.82495117 24.20654297 C50.95820514 27.14248155 56.09605077 30.06739626 61.27734375 32.91796875 C62.02798096 33.33224121 62.77861816 33.74651367 63.55200195 34.17333984 C64.88422475 34.90542694 66.21975938 35.63153665 67.55932617 36.35009766 C70.60397358 38.02347197 72.02416572 39.03624857 74 42 C74.44634955 44.96428615 74.3702657 47.94305339 74.375 50.9375 C74.39949219 51.74896484 74.42398438 52.56042969 74.44921875 53.39648438 C74.45308594 54.18216797 74.45695312 54.96785156 74.4609375 55.77734375 C74.46915527 56.49140381 74.47737305 57.20546387 74.48583984 57.94116211 C73.5816868 61.77268101 70.74160304 63.54082187 67.52416992 65.53295898 C66.60224854 66.01579346 65.68032715 66.49862793 64.73046875 66.99609375 C63.68826172 67.54813477 62.64605469 68.10017578 61.57226562 68.66894531 C60.45529297 69.25256836 59.33832031 69.83619141 58.1875 70.4375 C55.82574103 71.68942962 53.46489957 72.94292345 51.10546875 74.19921875 C50.50854218 74.51637848 49.9116156 74.83353821 49.29660034 75.16030884 C43.47596653 78.26094095 37.73240586 81.48997512 32 84.75 C30.59572754 85.54277344 30.59572754 85.54277344 29.16308594 86.3515625 C24.67256056 88.89057579 20.20767383 91.46271266 15.77734375 94.10546875 C14.95814453 94.58467773 14.13894531 95.06388672 13.29492188 95.55761719 C11.77196484 96.44905807 10.25808646 97.35627907 8.75585938 98.28222656 C5.19907935 100.34311681 3.74815526 101.12171354 -0.43359375 100.44140625 C-3 99 -3 99 -4 96 C-4.14767323 93.31916284 -4.23091588 90.68131948 -4.25 88 C-4.270625 87.27554688 -4.29125 86.55109375 -4.3125 85.8046875 C-4.35191402 80.46408846 -4.35191402 80.46408846 -2.83886719 78.46875 C-0.45405451 76.56393945 2.04509697 75.22887335 4.75 73.8125 C5.90790039 73.20092041 7.06580078 72.58934082 8.25878906 71.95922852 C8.87016724 71.63914825 9.48154541 71.31906799 10.1114502 70.98928833 C13.28422465 69.32727829 16.44733752 67.6471722 19.609375 65.96484375 C20.23930359 65.6298436 20.86923218 65.29484344 21.51824951 64.94969177 C29.80775823 60.52395648 37.9160655 55.78863608 46 51 C41.85913233 47.39106197 37.48421208 45.02700254 32.625 42.5625 C24.83677701 38.53482758 17.14318358 34.35915321 9.5 30.0625 C8.50307129 29.50699463 7.50614258 28.95148926 6.47900391 28.37915039 C5.54749512 27.85313232 4.61598633 27.32711426 3.65625 26.78515625 C2.82931641 26.31988525 2.00238281 25.85461426 1.15039062 25.37524414 C-0.92310658 24.04917582 -2.47717334 22.93158064 -4 21 C-4.32548821 18.09406473 -4.46430195 15.46441984 -4.4375 12.5625 C-4.45748047 11.79873047 -4.47746094 11.03496094 -4.49804688 10.24804688 C-4.49465484 6.35059413 -4.47472633 4.59363659 -1.97265625 1.46484375 C-1.32167969 0.98144531 -0.67070312 0.49804688 0 0 Z " fill="currentColor" transform="translate(288,190)"/>
<path d="M0 0 C0.84175781 -0.00128906 1.68351562 -0.00257813 2.55078125 -0.00390625 C3.43121094 -0.00003906 4.31164062 0.00382813 5.21875 0.0078125 C6.09917969 0.00394531 6.97960937 0.00007812 7.88671875 -0.00390625 C9.14935547 -0.00197266 9.14935547 -0.00197266 10.4375 0 C11.21029297 0.00112793 11.98308594 0.00225586 12.77929688 0.00341797 C14.71875 0.1328125 14.71875 0.1328125 16.71875 1.1328125 C16.0352763 7.21158616 13.90607115 12.72667656 11.84375 18.4453125 C11.41594238 19.63825928 10.98813477 20.83120605 10.54736328 22.06030273 C5.72070985 35.4116881 0.52489879 48.6233464 -4.63668823 61.84780884 C-11.33706444 79.01503121 -17.85296889 96.24235232 -24.20556641 113.54125977 C-24.51926682 114.39244888 -24.83296722 115.243638 -25.15617371 116.12062073 C-25.73141239 117.6821524 -26.3041956 119.24459236 -26.87373352 120.80821228 C-32.07814352 134.92970602 -32.07814352 134.92970602 -34.28125 137.1328125 C-35.84297745 137.21966853 -37.40854344 137.23983469 -38.97265625 137.23046875 C-39.91689453 137.22724609 -40.86113281 137.22402344 -41.83398438 137.22070312 C-42.82720703 137.21232422 -43.82042969 137.20394531 -44.84375 137.1953125 C-45.84083984 137.19080078 -46.83792969 137.18628906 -47.86523438 137.18164062 C-50.33729849 137.16981257 -52.80924518 137.15333099 -55.28125 137.1328125 C-57.18843533 131.88005066 -55.03382925 127.82134442 -53.109375 122.90234375 C-52.76006424 121.9798584 -52.41075348 121.05737305 -52.05085754 120.10693359 C-50.88946021 117.04841542 -49.71037739 113.99703439 -48.53125 110.9453125 C-47.71293154 108.800173 -46.895812 106.65457579 -46.07983398 104.50854492 C-44.365046 100.00442509 -42.64312428 95.50312833 -40.91552734 91.00390625 C-38.33975762 84.29275697 -35.7859091 77.57343756 -33.23828125 70.8515625 C-30.03230641 62.39473893 -26.82068559 53.9401089 -23.6015625 45.48828125 C-20.96185872 38.55694656 -18.32923931 31.62304195 -15.7109375 24.68359375 C-15.19002717 23.30427894 -14.66911265 21.92496572 -14.14819336 20.5456543 C-13.23011566 18.11434691 -12.31462598 15.68211954 -11.40063477 13.24926758 C-10.81366821 11.69502075 -10.81366821 11.69502075 -10.21484375 10.109375 C-9.88540771 9.23361816 -9.55597168 8.35786133 -9.21655273 7.45556641 C-7.02631476 2.01627532 -6.10861287 0.00891582 0 0 Z " fill="currentColor" transform="translate(261.28125,170.8671875)"/>
<path d="M0 0 C1.22265625 1.48828125 1.22265625 1.48828125 2 4 C0.93688522 6.87613205 -0.2009505 9.45802643 -1.5625 12.1875 C-19.57276351 50.40354912 -19.65095518 96.41222997 -6 136 C-6 136.99 -6 137.98 -6 139 C-6.99 138.67 -7.98 138.34 -9 138 C-10.01809558 135.50772556 -10.85681622 133.1302254 -11.625 130.5625 C-13.05739281 125.68225624 -13.05739281 125.68225624 -15 121 C-15.23899088 119.1563561 -15.47316218 117.3119653 -15.68359375 115.46484375 C-16.15915543 111.76015956 -16.83651427 108.09305767 -17.5 104.41796875 C-22.08776765 73.05627584 -20.37372806 28.63005839 -1.36328125 1.6796875 C-0.91339844 1.12539062 -0.46351562 0.57109375 0 0 Z " fill="currentColor" transform="translate(89,161)"/>
<path d="M0 0 C13.7952493 23.72321114 4.36484026 71.00065705 -2 96 C-5.04484853 106.53677846 -8.53016035 116.97756452 -13 127 C-14.80189273 121.59432182 -12.1991664 116.35831989 -10.0625 111.3125 C-8.08133572 106.5210175 -6.88434543 101.72878159 -5.80859375 96.6640625 C-5.12260364 93.55556626 -4.35170486 90.49399169 -3.55078125 87.4140625 C0.77937951 70.1281784 2.50298386 52.7607254 1.875 35 C1.82891602 33.69643555 1.78283203 32.39287109 1.73535156 31.04980469 C1.39548732 23.90163307 0.65719126 16.94932085 -0.59326172 9.90234375 C-1.01615882 6.88469623 -1.1374681 4.04306885 -1 1 C-0.67 0.67 -0.34 0.34 0 0 Z " fill="currentColor" transform="translate(448,199)"/>
<path d="M0 0 C5.95436404 5.80168804 5.95436404 5.80168804 6.11352539 9.98095703 C6.10828857 11.22731934 6.10305176 12.47368164 6.09765625 13.7578125 C6.0962413 14.42086395 6.09482635 15.08391541 6.09336853 15.76705933 C6.08776754 17.88641863 6.075215 20.00567259 6.0625 22.125 C6.05748512 23.56119639 6.05292219 24.99739444 6.04882812 26.43359375 C6.03779782 29.95576345 6.02053259 33.47787145 6 37 C24.97476786 33.82938162 43.77697511 30.60519366 61.06640625 21.78515625 C62.02353516 21.39650391 62.02353516 21.39650391 63 21 C63.66 21.33 64.32 21.66 65 22 C64.01 22.33 63.02 22.66 62 23 C62 23.66 62 24.32 62 25 C46.48201979 33.0018199 26.81540149 38.87626805 9.25 39.25 C8.51265625 39.27578125 7.7753125 39.3015625 7.015625 39.328125 C4.47637343 38.91475847 3.61564867 37.94286865 2 36 C2.33 35.01 2.66 34.02 3 33 C3.08686272 28.4974175 2.85698433 23.99946082 2.6875 19.5 C2.65205078 18.25089844 2.61660156 17.00179688 2.58007812 15.71484375 C2.51530273 13.92240234 2.51530273 13.92240234 2.44921875 12.09375 C2.41143311 10.99740234 2.37364746 9.90105469 2.3347168 8.77148438 C2.18603449 5.79053841 2.18603449 5.79053841 0 3 C0 2.01 0 1.02 0 0 Z " fill="currentColor" transform="translate(254,368)"/>
<path d="M0 0 C0.33 0 0.66 0 1 0 C0.86722656 1.16789063 0.73445313 2.33578125 0.59765625 3.5390625 C-2.69828031 33.3129374 -4.34310096 61.44870832 0.625 91.1796875 C1.19424988 95.460921 1.1750728 99.69126375 1 104 C-0.61862244 101.06357976 -1.4419363 98.44269472 -2.03515625 95.1484375 C-2.20466797 94.21386719 -2.37417969 93.27929688 -2.54882812 92.31640625 C-2.71833984 91.34574219 -2.88785156 90.37507813 -3.0625 89.375 C-3.23587891 88.42753906 -3.40925781 87.48007812 -3.58789062 86.50390625 C-5.61117919 75.17038945 -6.26907194 64.07508061 -6.3125 52.5625 C-6.31578308 51.84699982 -6.31906616 51.13149963 -6.32244873 50.39431763 C-6.34755377 33.33023101 -4.40283183 16.52053564 0 0 Z " fill="currentColor" transform="translate(36,188)"/>
<path d="M0 0 C0.33 0 0.66 0 1 0 C3.35880429 9.04051683 3.33835999 17.89336962 3.31567383 27.17285156 C3.31254767 29.83441492 3.33590837 32.49482616 3.36132812 35.15625 C3.52471176 78.86718893 3.52471176 78.86718893 -8 92 C-9.10771718 88.67684847 -8.92148608 88.01424362 -7.890625 84.81640625 C-7.63168457 83.98262451 -7.37274414 83.14884277 -7.10595703 82.28979492 C-6.82349121 81.3897876 -6.54102539 80.48978027 -6.25 79.5625 C0.99842467 54.98954385 1.39979626 30.12707362 -0.88769531 4.70849609 C-1 2 -1 2 0 0 Z " fill="currentColor" transform="translate(409,208)"/>
<path d="M0 0 C0.029729 1.36934692 0.029729 1.36934692 0.06005859 2.76635742 C0.13836264 6.16782472 0.22506225 9.56886604 0.31738281 12.9699707 C0.35555952 14.43928862 0.39043182 15.90869639 0.421875 17.37817383 C0.46777289 19.49593114 0.52572372 21.6130759 0.5859375 23.73046875 C0.6173584 25.00301514 0.6487793 26.27556152 0.68115234 27.58666992 C0.98215158 30.80892902 1.61791243 33.09761611 3 36 C0 35 0 35 -1.67578125 32.33984375 C-4.00515803 26.39408292 -3.31095466 19.83336346 -3.1875 13.5625 C-3.17396484 12.25861328 -3.16042969 10.95472656 -3.14648438 9.61132812 C-3.11127334 6.40712378 -3.06202094 3.20377895 -3 0 C-17.77710368 2.14932674 -31.97582754 5.02003828 -46.22607422 9.51269531 C-48 10 -48 10 -50 10 C-50 9.34 -50 8.68 -50 8 C-12.55412912 -7.02697935 -12.55412912 -7.02697935 0 0 Z " fill="currentColor" transform="translate(226,76)"/>
<path d="M0 0 C0.83853516 0.00193359 1.67707031 0.00386719 2.54101562 0.00585938 C3.41306641 0.01810547 4.28511719 0.03035156 5.18359375 0.04296875 C6.4974707 0.04393555 6.4974707 0.04393555 7.83789062 0.04492188 C14.3400999 0.08997182 14.3400999 0.08997182 16.62109375 1.23046875 C15.97192912 7.23524154 13.76314372 12.63124975 11.62109375 18.23046875 C10.36851483 14.47273199 10.87544371 12.09429167 11.62109375 8.23046875 C12.28109375 6.91046875 12.94109375 5.59046875 13.62109375 4.23046875 C7.02109375 4.23046875 0.42109375 4.23046875 -6.37890625 4.23046875 C-6.37890625 6.21046875 -6.37890625 8.19046875 -6.37890625 10.23046875 C-7.37890625 13.10546875 -7.37890625 13.10546875 -8.37890625 15.23046875 C-9.03890625 15.23046875 -9.69890625 15.23046875 -10.37890625 15.23046875 C-10.34152344 15.95878906 -10.30414063 16.68710938 -10.265625 17.4375 C-10.38580292 20.40050737 -11.0013541 22.22140864 -12.19140625 24.91796875 C-13.66739113 28.40524289 -14.90830193 31.83712744 -15.94140625 35.48046875 C-17.05779164 39.31238616 -18.27172515 42.80629946 -20.37890625 46.23046875 C-21.86390625 46.72546875 -21.86390625 46.72546875 -23.37890625 47.23046875 C-20.98527331 38.53032344 -17.88721856 30.08999263 -14.76318359 21.63232422 C-13.87185313 19.21131123 -12.99456691 16.78547309 -12.1171875 14.359375 C-11.54903418 12.81609044 -10.98005394 11.27311 -10.41015625 9.73046875 C-10.15069214 9.00657959 -9.89122803 8.28269043 -9.62390137 7.53686523 C-7.61078324 2.16315168 -5.84499837 -0.03128948 0 0 Z " fill="currentColor" transform="translate(261.37890625,170.76953125)"/>
<path d="M0 0 C1 2 1 2 -0.07299805 5.40698242 C-0.62793329 6.89281291 -1.19155539 8.375415 -1.76171875 9.85546875 C-2.06394348 10.6575325 -2.36616821 11.45959625 -2.67755127 12.28596497 C-3.67341058 14.92270222 -4.68028076 17.55508352 -5.6875 20.1875 C-6.37303189 21.99523246 -7.05800581 23.80317661 -7.74243164 25.61132812 C-13.74434419 41.43962404 -19.84150022 57.23201187 -26 73 C-26.33 73 -26.66 73 -27 73 C-27.70048208 65.57488991 -25.37081613 60.5490142 -22 54 C-21.34 54 -20.68 54 -20 54 C-19.96261719 53.43152344 -19.92523438 52.86304688 -19.88671875 52.27734375 C-19.43021378 46.91564807 -18.36510918 42.8330492 -16 38 C-15.34 38 -14.68 38 -14 38 C-14.04125 36.906875 -14.0825 35.81375 -14.125 34.6875 C-14 31 -14 31 -12 28 C-11.34 28 -10.68 28 -10 28 C-9.96261719 27.443125 -9.92523438 26.88625 -9.88671875 26.3125 C-9.40257161 20.6925959 -8.07475353 16.23198717 -6 11 C-6 10.01 -6 9.02 -6 8 C-5.34 8 -4.68 8 -4 8 C-3.71125 6.865625 -3.4225 5.73125 -3.125 4.5625 C-2.75375 3.386875 -2.3825 2.21125 -2 1 C-1.34 0.67 -0.68 0.34 0 0 Z " fill="currentColor" transform="translate(271,190)"/>
<path d="M0 0 C5.077359 1.13802874 9.46268561 2.34401109 14 5 C15.63510979 8.27021959 15.22628299 11.84733751 15.25 15.4375 C15.270625 16.21416016 15.29125 16.99082031 15.3125 17.79101562 C15.35236662 23.5766592 15.35236662 23.5766592 13.59155273 25.69213867 C11.59981113 27.32885593 10.59174805 27.8440364 8 28 C5.07421875 26.8828125 5.07421875 26.8828125 1.6875 25.125 C1.08663574 24.8148999 0.48577148 24.5047998 -0.13330078 24.18530273 C-7.27084148 20.43988791 -14.14494352 16.23400548 -21 12 C-20.67 11.34 -20.34 10.68 -20 10 C-16.34426939 11.37007562 -13.04532353 13.01017865 -9.6875 15 C-8.80449219 15.515625 -7.92148438 16.03125 -7.01171875 16.5625 C-6.34785156 17.036875 -5.68398437 17.51125 -5 18 C-5 18.66 -5 19.32 -5 20 C-2.69 20.33 -0.38 20.66 2 21 C2 21.99 2 22.98 2 24 C4.97 24 7.94 24 11 24 C11 18.39 11 12.78 11 7 C7.37 5.02 3.74 3.04 0 1 C0 0.67 0 0.34 0 0 Z " fill="currentColor" transform="translate(184,263)"/>
<path d="M0 0 C0.99 0.33 1.98 0.66 3 1 C-0.14400323 3.53961075 -3.32822299 6.01432961 -6.55371094 8.44946289 C-19.42652514 18.20410139 -31.40201753 28.94550937 -41 42 C-41.5859375 40.1015625 -41.5859375 40.1015625 -42 38 C-40.625 36.375 -40.625 36.375 -39 35 C-38.67 34.34 -38.34 33.68 -38 33 C-37.34 33 -36.68 33 -36 33 C-35.7525 32.4225 -35.505 31.845 -35.25 31.25 C-33.81700012 28.67060021 -32.21575324 26.93878408 -30 25 C-29.34 25 -28.68 25 -28 25 C-28 24.01 -28 23.02 -28 22 C-24.66666667 19 -24.66666667 19 -22 19 C-21.67 18.01 -21.34 17.02 -21 16 C-20.34 16 -19.68 16 -19 16 C-18.731875 15.38125 -18.46375 14.7625 -18.1875 14.125 C-17 12 -17 12 -14 10 C-13.01 10 -12.02 10 -11 10 C-10.67 9.01 -10.34 8.02 -10 7 C-8.6875 5.3125 -8.6875 5.3125 -7 4 C-5.68 4 -4.36 4 -3 4 C-3 3.34 -3 2.68 -3 2 C-2.01 1.34 -1.02 0.68 0 0 Z " fill="currentColor" transform="translate(147,98)"/>
<path d="M0 0 C0.99 0.33 1.98 0.66 3 1 C2.67 1.66 2.34 2.32 2 3 C2.66 3 3.32 3 4 3 C4.33 4.32 4.66 5.64 5 7 C2 6 2 6 1 5 C0.67 15.23 0.34 25.46 0 36 C-6.72768536 36.96109791 -8.22278161 37.00434107 -14 35 C-14 34.67 -14 34.34 -14 34 C-8.555 33.505 -8.555 33.505 -3 33 C-3.02320313 31.26492187 -3.04640625 29.52984375 -3.0703125 27.7421875 C-3.08907527 25.45312931 -3.10727493 23.16406646 -3.125 20.875 C-3.14175781 19.73289062 -3.15851563 18.59078125 -3.17578125 17.4140625 C-3.18222656 16.30546875 -3.18867188 15.196875 -3.1953125 14.0546875 C-3.20578613 13.03874512 -3.21625977 12.02280273 -3.22705078 10.97607422 C-2.92234525 6.98213832 -1.78605717 3.57211434 0 0 Z " fill="currentColor" transform="translate(226,0)"/>
<path d="M0 0 C7.26 0 14.52 0 22 0 C22 0.33 22 0.66 22 1 C12.595 1.99 12.595 1.99 3 3 C3.04640625 4.95164062 3.0928125 6.90328125 3.140625 8.9140625 C3.17814759 11.48435968 3.21454722 14.05467343 3.25 16.625 C3.28351563 17.91019531 3.31703125 19.19539063 3.3515625 20.51953125 C3.47325212 32.26257945 3.47325212 32.26257945 -1 37 C-1.99 36.67 -2.98 36.34 -4 36 C-3.34805664 35.15743652 -2.69611328 34.31487305 -2.02441406 33.44677734 C0.29593128 29.49614595 0.46814709 27.38660472 0.390625 22.8515625 C0.38213531 21.86547501 0.38213531 21.86547501 0.37347412 20.85946655 C0.35126275 18.78053809 0.3011042 16.70339837 0.25 14.625 C0.22991489 13.20705632 0.21166765 11.78908535 0.1953125 10.37109375 C0.15486504 6.9128361 0.07656964 3.4583955 0 0 Z " fill="currentColor" transform="translate(257,445)"/>
<path d="M0 0 C0 0.66 0 1.32 0 2 C-0.63687744 2.11480713 -1.27375488 2.22961426 -1.92993164 2.34790039 C-15.07439475 4.75393777 -27.86322404 7.55944508 -40.56079102 11.76391602 C-45.18837291 13.27270096 -49.05892973 14.41790147 -54 14 C-43.77951916 7.18634611 -29.46652187 4.65534536 -17.625 2.0625 C-16.66948242 1.85133545 -15.71396484 1.6401709 -14.72949219 1.42260742 C-9.71489142 0.37530476 -5.12140365 -0.23279108 0 0 Z " fill="currentColor" transform="translate(211,35)"/>
<path d="M0 0 C0.33 0 0.66 0 1 0 C0.85433594 1.25296875 0.70867188 2.5059375 0.55859375 3.796875 C0.16095836 7.3665087 -0.17362069 10.9357733 -0.46484375 14.515625 C-0.54283203 15.45664063 -0.62082031 16.39765625 -0.70117188 17.3671875 C-0.8599708 19.30427196 -1.01353737 21.24179182 -1.16210938 23.1796875 C-1.24138672 24.11554688 -1.32066406 25.05140625 -1.40234375 26.015625 C-1.46929443 26.85383789 -1.53624512 27.69205078 -1.60522461 28.55566406 C-2 31 -2 31 -3.02514648 33.20678711 C-4.47090177 37.34925798 -4.24565562 41.32115031 -4.1953125 45.67578125 C-4.1924826 46.6009404 -4.18965271 47.52609955 -4.18673706 48.47929382 C-4.17557392 51.42382942 -4.15047637 54.36805688 -4.125 57.3125 C-4.11496521 59.31314664 -4.10584023 61.31379806 -4.09765625 63.31445312 C-4.07564722 68.2097535 -4.04114391 73.10482457 -4 78 C-4.33 78 -4.66 78 -5 78 C-6.06930681 69.5347591 -6.28034105 61.08768935 -6.3125 52.5625 C-6.31578308 51.84699982 -6.31906616 51.13149963 -6.32244873 50.39431763 C-6.34755377 33.33023101 -4.40283183 16.52053564 0 0 Z " fill="currentColor" transform="translate(36,188)"/>
<path d="M0 0 C1.48199902 0.44909061 2.96055236 0.90956564 4.4375 1.375 C5.26121094 1.63023437 6.08492188 1.88546875 6.93359375 2.1484375 C9 3 9 3 10 5 C8.02 5 6.04 5 4 5 C3.67 5.66 3.34 6.32 3 7 C2.34 7 1.68 7 1 7 C1 6.01 1 5.02 1 4 C0.34 4 -0.32 4 -1 4 C-0.91327254 6.79322218 -0.80644643 9.58312528 -0.6875 12.375 C-0.65366211 13.56609375 -0.65366211 13.56609375 -0.61914062 14.78125 C-0.52214925 16.86215581 -0.27005175 18.93441332 0 21 C0.99 21.66 1.98 22.32 3 23 C3 23.66 3 24.32 3 25 C0.97954558 24.39816251 -1.02111039 23.72693904 -3 23 C-4.62841701 19.74316597 -4.26795577 16.20041665 -4.3125 12.625 C-4.34150391 11.85671875 -4.37050781 11.0884375 -4.40039062 10.296875 C-4.46463393 4.58416258 -4.46463393 4.58416258 -1.98046875 1.4609375 C-1.32691406 0.97882813 -0.67335938 0.49671875 0 0 Z " fill="currentColor" transform="translate(288,190)"/>
<path d="M0 0 C-0.5168335 0.36125977 -1.03366699 0.72251953 -1.56616211 1.09472656 C-10.88741345 7.61147201 -20.20534619 14.13285301 -29.5 20.6875 C-30.54788696 21.42564941 -30.54788696 21.42564941 -31.61694336 22.17871094 C-32.59546265 22.8694873 -32.59546265 22.8694873 -33.59375 23.57421875 C-34.19219727 23.99582275 -34.79064453 24.41742676 -35.40722656 24.85180664 C-36.74213187 25.81410886 -38.04018138 26.82725835 -39.328125 27.8515625 C-41 29 -41 29 -43.25 28.6875 C-43.8275 28.460625 -44.405 28.23375 -45 28 C-42.81434857 25.81434857 -40.71931095 24.45914246 -38 23 C-37.01 23 -36.02 23 -35 23 C-35 22.34 -35 21.68 -35 21 C-33.02 20.34 -31.04 19.68 -29 19 C-29 18.34 -29 17.68 -29 17 C-27.1875 14.875 -27.1875 14.875 -25 13 C-24.01 13 -23.02 13 -22 13 C-22 12.34 -22 11.68 -22 11 C-20.35546875 9.7109375 -20.35546875 9.7109375 -18.1875 8.375 C-17.47980469 7.92898437 -16.77210938 7.48296875 -16.04296875 7.0234375 C-14 6 -14 6 -11 6 C-11 5.34 -11 4.68 -11 4 C-10.01 3.67 -9.02 3.34 -8 3 C-7.67 2.34 -7.34 1.68 -7 1 C-4.01793274 -0.8886426 -3.49368922 -1.16456307 0 0 Z " fill="currentColor" transform="translate(284,86)"/>
<path d="M0 0 C0.66 0.99 1.32 1.98 2 3 C1.34 3.721875 0.68 4.44375 0 5.1875 C-3.33387852 10.17641107 -2.73015771 16.27556353 -2 22 C-0.43559628 25.51662056 -0.43559628 25.51662056 2 28 C2.680625 28.886875 3.36125 29.77375 4.0625 30.6875 C5.63709233 32.56685213 7.22448088 34.31325684 9 36 C3.06066184 34.07844942 -1.2632876 30.74077969 -4.375 25.375 C-6.62180745 20.34101369 -6.91779343 15.40733298 -6 10 C-4.5285626 6.41074378 -2.77453831 2.77453831 0 0 Z " fill="currentColor" transform="translate(331,68)"/>
<path d="M0 0 C0.33 0 0.66 0 1 0 C0.67 7.92 0.34 15.84 0 24 C-0.66 24 -1.32 24 -2 24 C-2 31.92 -2 39.84 -2 48 C-2.99 48.495 -2.99 48.495 -4 49 C-4.95633971 9.91267943 -4.95633971 9.91267943 0 0 Z " fill="currentColor" transform="translate(74,202)"/>
<path d="M0 0 C0.99 0.33 1.98 0.66 3 1 C-8.97864987 11.65965247 -22.9843169 21.19618541 -38 27 C-38 26.01 -38 25.02 -38 24 C-36.02 23.67 -34.04 23.34 -32 23 C-32 22.01 -32 21.02 -32 20 C-30.35 20 -28.7 20 -27 20 C-27 19.34 -27 18.68 -27 18 C-24.35261084 16.5393715 -23.10551666 16 -20 16 C-20 15.34 -20 14.68 -20 14 C-12.57142857 9.57142857 -12.57142857 9.57142857 -9 9 C-9 8.34 -9 7.68 -9 7 C-8.34 7 -7.68 7 -7 7 C-7 6.34 -7 5.68 -7 5 C-6.34 5 -5.68 5 -5 5 C-5 4.34 -5 3.68 -5 3 C-3.35 2.67 -1.7 2.34 0 2 C0 1.34 0 0.68 0 0 Z " fill="currentColor" transform="translate(374,400)"/>
<path d="M0 0 C0.66 0.33 1.32 0.66 2 1 C1.34 1.66 0.68 2.32 0 3 C-0.17201285 5.54229159 -0.23257617 7.96149996 -0.1875 10.5 C-0.1865332 11.53447266 -0.1865332 11.53447266 -0.18554688 12.58984375 C-0.20365609 16.42235194 -0.20365609 16.42235194 1 20 C4.3 19.67 7.6 19.34 11 19 C11 18.34 11 17.68 11 17 C12.8125 15.9375 12.8125 15.9375 15 15 C15.99 15.33 16.98 15.66 18 16 C15.80488686 17.401264 13.59819045 18.76961427 11.375 20.125 C10.75753906 20.52332031 10.14007813 20.92164063 9.50390625 21.33203125 C6.18015001 23.32628499 4.47609028 24.07989561 0.6015625 23.4296875 C-2 22 -2 22 -3 19 C-3.14767323 16.31916284 -3.23091588 13.68131948 -3.25 11 C-3.270625 10.27554687 -3.29125 9.55109375 -3.3125 8.8046875 C-3.35191187 3.46437856 -3.35191187 3.46437856 -1.484375 1 C-0.99453125 0.67 -0.5046875 0.34 0 0 Z " fill="currentColor" transform="translate(287,267)"/>
<path d="M0 0 C2.61475822 3.11123718 3.82320968 5.95844708 5.0078125 9.83203125 C5.35457031 10.96060547 5.70132812 12.08917969 6.05859375 13.25195312 C6.58646484 15.01442383 6.58646484 15.01442383 7.125 16.8125 C7.48464844 17.97587891 7.84429687 19.13925781 8.21484375 20.33789062 C9.90022821 25.88324736 11.44335783 31.22272902 12 37 C11.01 36.67 10.02 36.34 9 36 C6.96418454 30.92679142 6.7704253 25.39500547 7 20 C6.34 20 5.68 20 5 20 C2.86902904 13.70018779 0.75019778 7.41739187 -1 1 C-0.67 0.67 -0.34 0.34 0 0 Z " fill="currentColor" transform="translate(436,160)"/>
<path d="M0 0 C2.62506802 -0.02690844 5.24986173 -0.04679404 7.875 -0.0625 C8.62136719 -0.07087891 9.36773437 -0.07925781 10.13671875 -0.08789062 C15.7734375 -0.11328125 15.7734375 -0.11328125 18 1 C17.35083537 7.00477279 15.14204997 12.400781 13 18 C11.57345274 13.72035822 12.12423492 9.86633082 14.04296875 5.77734375 C14.35878906 5.19082031 14.67460937 4.60429687 15 4 C14.10796875 4.02320313 13.2159375 4.04640625 12.296875 4.0703125 C11.12640625 4.08835938 9.9559375 4.10640625 8.75 4.125 C7.00976562 4.15980469 7.00976562 4.15980469 5.234375 4.1953125 C2.17213954 4.0103949 0.55797249 3.60823023 -2 2 C-1.34 2 -0.68 2 0 2 C0 1.34 0 0.68 0 0 Z " fill="currentColor" transform="translate(260,171)"/>
<path d="M0 0 C5.95801245 10.1656041 4.1317908 25.09868306 3.625 36.4375 C3.56653929 37.9589399 3.50924226 39.48042498 3.453125 41.00195312 C3.31542334 44.66858478 3.16223326 48.33436182 3 52 C2.67 52 2.34 52 2 52 C1.98018066 51.09870361 1.96036133 50.19740723 1.93994141 49.26879883 C1.8608991 45.85971709 1.77418797 42.45099614 1.68261719 39.04223633 C1.64480907 37.57909409 1.60988163 36.11587398 1.578125 34.65258789 C1.39355069 26.24580465 0.93137014 18.13640349 -0.58447266 9.83862305 C-1.02327233 6.84101798 -1.13740079 4.02528081 -1 1 C-0.67 0.67 -0.34 0.34 0 0 Z " fill="currentColor" transform="translate(448,199)"/>
<path d="M0 0 C0 3 0 3 -1 5 C-1.66 5 -2.32 5 -3 5 C-3.33 6.65 -3.66 8.3 -4 10 C-4.66 10 -5.32 10 -6 10 C-6 10.66 -6 11.32 -6 12 C-8.3082507 13.60295188 -10.31824566 14.83472622 -13.0625 15.5 C-15.52727856 16.13607189 -17.05111642 17.39913134 -19 19 C-19.66 18.67 -20.32 18.34 -21 18 C-14.6352053 11.18057711 -7.38049321 5.66076664 0 0 Z " fill="currentColor" transform="translate(117,70)"/>
<path d="M0 0 C1.29640378 0.59393382 2.58698839 1.20057989 3.875 1.8125 C4.59429687 2.14894531 5.31359375 2.48539063 6.0546875 2.83203125 C8 4 8 4 10 7 C10.24291992 8.96118164 10.24291992 8.96118164 10.23046875 11.16015625 C10.22853516 11.95357422 10.22660156 12.74699219 10.22460938 13.56445312 C10.21236328 14.38880859 10.20011719 15.21316406 10.1875 16.0625 C10.18685547 16.89072266 10.18621094 17.71894531 10.18554688 18.57226562 C10.14053468 24.71893064 10.14053468 24.71893064 9 27 C8.01 26.67 7.02 26.34 6 26 C6 19.4 6 12.8 6 6 C5.34 5.67 4.68 5.34 4 5 C4 4.34 4 3.68 4 3 C2.68 2.67 1.36 2.34 0 2 C0 1.34 0 0.68 0 0 Z " fill="currentColor" transform="translate(352,225)"/>
<path d="M0 0 C-3.78720286 1.16094456 -7.58042459 2.30090678 -11.375 3.4375 C-12.43589844 3.76298828 -13.49679687 4.08847656 -14.58984375 4.42382812 C-21.07575435 6.35368496 -27.23668707 7.63730764 -34 8 C-34.33 7.34 -34.66 6.68 -35 6 C-27.03201855 2.10077503 -18.70537429 2.28688165 -10 2 C-10 1.34 -10 0.68 -10 0 C-3.375 -1.125 -3.375 -1.125 0 0 Z " fill="currentColor" transform="translate(314,437)"/>
<path d="M0 0 C1.9375 1.125 1.9375 1.125 4 3 C4.98295147 7.25778663 5.11764232 11.35397322 5.09765625 15.7109375 C5.09443359 16.95488281 5.09121094 18.19882812 5.08789062 19.48046875 C5.07951172 20.76566406 5.07113281 22.05085938 5.0625 23.375 C5.05798828 24.68339844 5.05347656 25.99179687 5.04882812 27.33984375 C5.03707594 30.55994281 5.02064543 33.7799477 5 37 C4.01 37 3.02 37 2 37 C2.16604736 36.46769775 2.33209473 35.93539551 2.50317383 35.38696289 C3.58408551 30.19380637 2.88740058 24.70885095 2.6875 19.4375 C2.65205078 18.19291016 2.61660156 16.94832031 2.58007812 15.66601562 C2.53689453 14.47556641 2.49371094 13.28511719 2.44921875 12.05859375 C2.41143311 10.96861084 2.37364746 9.87862793 2.3347168 8.75561523 C2.18416912 5.78840325 2.18416912 5.78840325 0 3 C0 2.01 0 1.02 0 0 Z " fill="currentColor" transform="translate(254,368)"/>
<path d="M0 0 C2.3125 0.25 2.3125 0.25 5 1 C6.01405257 2.32267727 7.01268258 3.65724831 8 5 C8.87011719 5.42152344 9.74023438 5.84304688 10.63671875 6.27734375 C14.63658306 8.32605474 17.89401689 10.87146461 21.375 13.6875 C22.01566406 14.19861328 22.65632813 14.70972656 23.31640625 15.23632812 C24.88147792 16.48604953 26.44128856 17.74235474 28 19 C27.67 19.99 27.34 20.98 27 22 C4.04286422 4.53626453 4.04286422 4.53626453 0 1 C0 0.67 0 0.34 0 0 Z " fill="currentColor" transform="translate(179,435)"/>
<path d="M0 0 C-2.91236539 1.65353259 -5.83058604 3.29644905 -8.75 4.9375 C-9.575 5.40607422 -10.4 5.87464844 -11.25 6.35742188 C-12.04921875 6.80537109 -12.8484375 7.25332031 -13.671875 7.71484375 C-14.4050293 8.12855225 -15.13818359 8.54226074 -15.89355469 8.96850586 C-17.9300979 9.96577001 -19.78593284 10.542747 -22 11 C-22.33 9.02 -22.66 7.04 -23 5 C-20 4 -20 4 -16.9375 4.25 C-12.18578457 3.94830378 -9.31148764 2.33220332 -5.234375 -0.00390625 C-3 -1 -3 -1 0 0 Z " fill="currentColor" transform="translate(178,224)"/>
<path d="M0 0 C3.94490696 3.09956976 5.1669007 6.58813188 6.8515625 11.13671875 C8.53446946 15.3325378 10.68369749 19.26259757 12.828125 23.23828125 C14.03667434 26.0864292 14.24483624 27.94511147 14 31 C11.0230441 27.39044097 9.06093734 23.41836199 7 19.25 C6.65710937 18.57195312 6.31421875 17.89390625 5.9609375 17.1953125 C0 5.22793416 0 5.22793416 0 0 Z " fill="currentColor" transform="translate(43,311)"/>
<path d="M0 0 C4.16486198 -0.30017023 6.65015727 0.54675054 10.3125 2.5 C11.19550781 2.9640625 12.07851563 3.428125 12.98828125 3.90625 C13.65214844 4.2671875 14.31601562 4.628125 15 5 C15 5.66 15 6.32 15 7 C15.66 7.2475 16.32 7.495 17 7.75 C20.76360907 9.31817045 24.3711424 11.14505046 28 13 C28 13.33 28 13.66 28 14 C20.97642261 13.6980154 15.99835961 10.48765527 10.0625 6.9375 C9.09248047 6.36966797 8.12246094 5.80183594 7.12304688 5.21679688 C4.74249178 3.82129906 2.36864614 2.41558519 0 1 C0 0.67 0 0.34 0 0 Z " fill="currentColor" transform="translate(291,215)"/>
<path d="M0 0 C0.66 0.33 1.32 0.66 2 1 C-0.12058145 2.67257128 -2.24604076 4.33815418 -4.375 6 C-4.97828125 6.47695313 -5.5815625 6.95390625 -6.203125 7.4453125 C-10.7734375 11 -10.7734375 11 -13 11 C-14.33418031 14.049555 -15.26670814 17.01420418 -16 20.25 C-16.33 21.4875 -16.66 22.725 -17 24 C-17.66 24.33 -18.32 24.66 -19 25 C-19.58063769 21.01848444 -19.82308032 17.51888017 -17.86328125 13.90234375 C-12.97259468 7.94589013 -6.49729962 4.01146906 0 0 Z " fill="currentColor" transform="translate(190,401)"/>
<path d="M0 0 C3.98362887 3.52149095 6.41312405 7.64741498 9.0625 12.1875 C9.49626953 12.90486328 9.93003906 13.62222656 10.37695312 14.36132812 C13.33771781 19.39507873 15.36950975 24.39596295 17 30 C14.47154472 28.73577236 14.23577236 27.47154472 13 25 C12.34 24.67 11.68 24.34 11 24 C10.2671523 22.33443705 9.5408833 20.66535531 8.86328125 18.9765625 C7.98193307 16.95863409 6.94762029 15.13518211 5.8125 13.25 C4 10 4 10 4 7 C3.34 7 2.68 7 2 7 C0 4 0 4 0 0 Z " fill="currentColor" transform="translate(417,125)"/>
<path d="M0 0 C1.17976601 3.49971506 1.00967899 3.97697574 -0.546875 7.6796875 C-1.26915266 9.08441134 -2.00403837 10.4827086 -2.75 11.875 C-3.29140625 12.91720703 -3.29140625 12.91720703 -3.84375 13.98046875 C-4.55340884 15.34579065 -5.26749213 16.7088234 -5.98632812 18.06933594 C-7.36396303 20.69321283 -8.6847078 23.3444417 -10 26 C-10.99 25.67 -11.98 25.34 -13 25 C-4.42553191 7.65957447 -4.42553191 7.65957447 0 0 Z " fill="currentColor" transform="translate(59,134)"/>
<path d="M0 0 C0.33 0.66 0.66 1.32 1 2 C0.0390625 4.78515625 0.0390625 4.78515625 -1.375 8.0625 C-1.83648437 9.14660156 -2.29796875 10.23070312 -2.7734375 11.34765625 C-4 14 -4 14 -5 15 C-6.56172745 15.08685603 -8.12729344 15.10702219 -9.69140625 15.09765625 C-10.63564453 15.09443359 -11.57988281 15.09121094 -12.55273438 15.08789062 C-13.54595703 15.07951172 -14.53917969 15.07113281 -15.5625 15.0625 C-16.55958984 15.05798828 -17.55667969 15.05347656 -18.58398438 15.04882812 C-21.05604849 15.03700007 -23.52799518 15.02051849 -26 15 C-26.625 12.625 -26.625 12.625 -27 10 C-26.34 9.34 -25.68 8.68 -25 8 C-25 9.65 -25 11.3 -25 13 C-19.06 13 -13.12 13 -7 13 C-6.67 11.68 -6.34 10.36 -6 9 C-5.01 9 -4.02 9 -3 9 C-3.061875 8.071875 -3.12375 7.14375 -3.1875 6.1875 C-3 3 -3 3 -1.5 1.125 C-1.005 0.75375 -0.51 0.3825 0 0 Z " fill="currentColor" transform="translate(232,293)"/>
<path d="M0 0 C0.33 0 0.66 0 1 0 C1 7.26 1 14.52 1 22 C0.01 22 -0.98 22 -2 22 C-2.05790353 18.70840684 -2.09356261 15.41694397 -2.125 12.125 C-2.14175781 11.18785156 -2.15851563 10.25070313 -2.17578125 9.28515625 C-2.18544922 7.94130859 -2.18544922 7.94130859 -2.1953125 6.5703125 C-2.20578613 5.74289551 -2.21625977 4.91547852 -2.22705078 4.06298828 C-2 2 -2 2 0 0 Z " fill="currentColor" transform="translate(123,229)"/>
<path d="M0 0 C3.65573061 1.37007562 6.95467647 3.01017865 10.3125 5 C11.19550781 5.515625 12.07851562 6.03125 12.98828125 6.5625 C13.65214844 7.036875 14.31601563 7.51125 15 8 C15 8.66 15 9.32 15 10 C17.31 10.33 19.62 10.66 22 11 C22 11.99 22 12.98 22 14 C22.66 14 23.32 14 24 14 C23.67 14.66 23.34 15.32 23 16 C15.08 11.38 7.16 6.76 -1 2 C-0.67 1.34 -0.34 0.68 0 0 Z " fill="currentColor" transform="translate(164,273)"/>
<path d="M0 0 C0.66 0 1.32 0 2 0 C2.48176601 3.44596522 2.66072737 6.56950352 2 10 C-0.22539409 12.49967235 -2.99954762 13.60291436 -6 15 C-7.93904815 16.1223295 -9.87651637 17.24739251 -11.8125 18.375 C-14.58203125 19.9609375 -14.58203125 19.9609375 -17 21 C-17.99 20.67 -18.98 20.34 -20 20 C-17.4345406 17.4345406 -15.52313332 17.45953913 -12 17 C-12 16.34 -12 15.68 -12 15 C-9 13 -9 13 -5 13 C-5 12.34 -5 11.68 -5 11 C-3.35 10.67 -1.7 10.34 0 10 C0 6.7 0 3.4 0 0 Z " fill="currentColor" transform="translate(197,202)"/>
<path d="M0 0 C0.99 0.33 1.98 0.66 3 1 C3 1.99 3 2.98 3 4 C3.99 4.33 4.98 4.66 6 5 C7.16796875 7.1796875 7.16796875 7.1796875 8.1875 9.875 C8.53167969 10.75929687 8.87585938 11.64359375 9.23046875 12.5546875 C10 15 10 15 10 18 C10.66 18 11.32 18 12 18 C12.33 20.97 12.66 23.94 13 27 C9.92495774 23.3905754 8.30634282 19.38904602 6.5 15.0625 C4.57977288 10.48833452 2.57013692 6.25483033 0 2 C0 1.34 0 0.68 0 0 Z " fill="currentColor" transform="translate(388,156)"/>
<path d="M0 0 C0 5.87111719 -5.8560017 10.90652016 -9.75 15.0625 C-12 17 -12 17 -15 17 C-15 17.66 -15 18.32 -15 19 C-16.98 19.99 -16.98 19.99 -19 21 C-17.54254576 17.63664406 -15.68882146 15.45465995 -13.0859375 12.890625 C-12.32539063 12.13652344 -11.56484375 11.38242187 -10.78125 10.60546875 C-9.9871875 9.82816406 -9.193125 9.05085938 -8.375 8.25 C-7.57320313 7.45722656 -6.77140625 6.66445313 -5.9453125 5.84765625 C-3.96797154 3.89385507 -1.98611091 1.94487897 0 0 Z " fill="currentColor" transform="translate(371,348)"/>
<path d="M0 0 C0.66 0 1.32 0 2 0 C2 0.99 2 1.98 2 3 C2.66 3 3.32 3 4 3 C4.33 2.01 4.66 1.02 5 0 C7.475 0.99 7.475 0.99 10 2 C9.34 3.32 8.68 4.64 8 6 C6.02 6 4.04 6 2 6 C1.95875 7.258125 1.9175 8.51625 1.875 9.8125 C1.84019531 10.87404297 1.84019531 10.87404297 1.8046875 11.95703125 C1.86745538 14.31359719 1.86745538 14.31359719 4 17 C2.68 17 1.36 17 0 17 C-0.19436491 14.54203147 -0.3807742 12.08390706 -0.5625 9.625 C-0.61857422 8.92632812 -0.67464844 8.22765625 -0.73242188 7.5078125 C-1.11328125 2.2265625 -1.11328125 2.2265625 0 0 Z " fill="currentColor" transform="translate(287,194)"/>
<path d="M0 0 C0.66 0.33 1.32 0.66 2 1 C-0.87487207 4.94779083 -3.78628598 7.47201762 -7.875 10.125 C-8.88304687 10.78757812 -9.89109375 11.45015625 -10.9296875 12.1328125 C-13.90247179 13.94068895 -16.80938337 15.60921839 -20 17 C-20.66 16.67 -21.32 16.34 -22 16 C-21.47567383 15.62190186 -20.95134766 15.24380371 -20.41113281 14.85424805 C-18.02380858 13.13238648 -15.6369005 11.40994891 -13.25 9.6875 C-12.425 9.09259766 -11.6 8.49769531 -10.75 7.88476562 C-9.55117187 7.01948242 -9.55117187 7.01948242 -8.328125 6.13671875 C-7.5949707 5.60780029 -6.86181641 5.07888184 -6.10644531 4.53393555 C-4.05654145 3.04117407 -2.02479221 1.52659729 0 0 Z " fill="currentColor" transform="translate(236,369)"/>
<path d="M0 0 C5.19525146 1.3606611 8.17555757 3.35767388 12 7 C12 7.66 12 8.32 12 9 C12.99 9 13.98 9 15 9 C15 9.66 15 10.32 15 11 C15.5775 11.268125 16.155 11.53625 16.75 11.8125 C19.05550043 13.02929189 21.02056192 14.30333879 23 16 C23 16.66 23 17.32 23 18 C18.80942434 17.48107357 16.72771752 15.15834717 13.75 12.3125 C9.78396425 8.59667053 5.79804312 5.19581007 1.36328125 2.05859375 C0.91339844 1.70925781 0.46351563 1.35992187 0 1 C0 0.67 0 0.34 0 0 Z " fill="currentColor" transform="translate(340,104)"/>
<path d="M0 0 C-4.58427997 3.56812215 -9.58866955 6.31394855 -14.625 9.1875 C-15.59179688 9.74630859 -16.55859375 10.30511719 -17.5546875 10.88085938 C-18.47765625 11.40873047 -19.400625 11.93660156 -20.3515625 12.48046875 C-21.19541504 12.96410889 -22.03926758 13.44774902 -22.90869141 13.94604492 C-25 15 -25 15 -27 15 C-27 14.34 -27 13.68 -27 13 C-23.20331835 10.19768735 -19.2490582 8.03215827 -15 6 C-14.278125 5.608125 -13.55625 5.21625 -12.8125 4.8125 C-11 4 -11 4 -8 4 C-7.67 3.01 -7.34 2.02 -7 1 C-4.53721199 -0.231394 -2.7204945 -0.07159196 0 0 Z " fill="currentColor" transform="translate(338,264)"/>
<path d="M0 0 C4.87731417 3.12998978 9.37400579 6.60384577 13.875 10.25 C14.56335938 10.80429688 15.25171875 11.35859375 15.9609375 11.9296875 C17.64242881 13.28422217 19.32146867 14.64179907 21 16 C16.27179001 16 13.0574498 13.97396692 9.625 10.8125 C9.08875 10.214375 8.5525 9.61625 8 9 C7.01 9.33 6.02 9.66 5 10 C4.731875 9.05125 4.46375 8.1025 4.1875 7.125 C3.25013412 3.74732727 3.25013412 3.74732727 0 2 C0 1.34 0 0.68 0 0 Z " fill="currentColor" transform="translate(247,0)"/>
<path d="M0 0 C0.99 0.33 1.98 0.66 3 1 C4.04897167 3.80710728 4.90836773 6.49385833 5.6875 9.375 C5.91244141 10.15617187 6.13738281 10.93734375 6.36914062 11.7421875 C7.27729583 14.96627649 8 17.62909327 8 21 C7.01 20.67 6.02 20.34 5 20 C3.98190442 17.50772556 3.14318378 15.1302254 2.375 12.5625 C0.94260719 7.68225624 0.94260719 7.68225624 -1 3 C-0.67 2.01 -0.34 1.02 0 0 Z " fill="currentColor" transform="translate(75,279)"/>
<path d="M0 0 C-1.48733526 4.04836816 -3.69413593 5.28137826 -7.4375 7.25 C-8.88962891 8.03117187 -8.88962891 8.03117187 -10.37109375 8.828125 C-13 10 -13 10 -16 10 C-16 10.66 -16 11.32 -16 12 C-17.32 12 -18.64 12 -20 12 C-20 12.66 -20 13.32 -20 14 C-21.32 13.67 -22.64 13.34 -24 13 C-23.51120361 12.71278076 -23.02240723 12.42556152 -22.51879883 12.12963867 C-20.28322788 10.81582711 -18.04786236 9.50166642 -15.8125 8.1875 C-15.04357422 7.73568359 -14.27464844 7.28386719 -13.48242188 6.81835938 C-12.73154297 6.37685547 -11.98066406 5.93535156 -11.20703125 5.48046875 C-10.11382568 4.83924072 -10.11382568 4.83924072 -8.99853516 4.18505859 C-7.34388531 3.20391147 -5.70659074 2.19356192 -4.07421875 1.17578125 C-2 0 -2 0 0 0 Z " fill="currentColor" transform="translate(144,55)"/>
<path d="M0 0 C0.99 0.33 1.98 0.66 3 1 C-1.64448004 7.0114724 -5.58738272 10.65920546 -13.375 11.6875 C-14.57125 11.790625 -15.7675 11.89375 -17 12 C-17 11.01 -17 10.02 -17 9 C-16.38511719 8.96261719 -15.77023438 8.92523438 -15.13671875 8.88671875 C-14.32847656 8.82097656 -13.52023438 8.75523437 -12.6875 8.6875 C-11.88699219 8.62949219 -11.08648437 8.57148438 -10.26171875 8.51171875 C-7.61257517 7.9123443 -6.79526159 6.96373189 -5 5 C-4.34 5 -3.68 5 -3 5 C-2.67 4.01 -2.34 3.02 -2 2 C-1.34 2 -0.68 2 0 2 C0 1.34 0 0.68 0 0 Z " fill="currentColor" transform="translate(152,408)"/>
<path d="M0 0 C4.30064055 2.039424 7.93302335 4.74486412 11.75 7.5625 C12.44738281 8.06974609 13.14476562 8.57699219 13.86328125 9.09960938 C15.59573718 10.3726763 17.30057829 11.68315954 19 13 C19 13.33 19 13.66 19 14 C16.75 14.25 16.75 14.25 14 14 C11.6875 12.125 11.6875 12.125 10 10 C10 9.34 10 8.68 10 8 C8.8553125 7.814375 8.8553125 7.814375 7.6875 7.625 C3.37794622 6.62277819 1.44768924 4.49669891 -1 1 C-0.67 0.67 -0.34 0.34 0 0 Z " fill="currentColor" transform="translate(130,367)"/>
<path d="M0 0 C1.11807052 3.78609074 0.67733918 5.56488542 -0.8125 9.25 C-2.11875144 12.59810524 -3.26138853 15.79562521 -4 19.3125 C-5.10313933 23.38032627 -6.50153072 25.66870762 -9 29 C-10 27 -10 27 -9.19555664 24.29443359 C-8.77137451 23.17375488 -8.34719238 22.05307617 -7.91015625 20.8984375 C-7.45576172 19.68671875 -7.00136719 18.475 -6.53320312 17.2265625 C-6.04313235 15.94264588 -5.55289581 14.65879251 -5.0625 13.375 C-4.5754739 12.08359635 -4.08913684 10.7919326 -3.60351562 9.5 C-2.40911626 6.33070268 -1.20767198 3.16425846 0 0 Z " fill="currentColor" transform="translate(237,218)"/>
<path d="M0 0 C0.99 0.33 1.98 0.66 3 1 C4.05885037 4.1765511 4.20049266 6.59988011 4.25 9.9375 C4.27578125 10.97777344 4.3015625 12.01804687 4.328125 13.08984375 C4 16 4 16 1 20 C0.67 13.4 0.34 6.8 0 0 Z " fill="currentColor" transform="translate(154,387)"/>
<path d="M0 0 C0.66 0.33 1.32 0.66 2 1 C-0.45373878 3.65012695 -2.913749 6.29434997 -5.375 8.9375 C-6.07367188 9.69224609 -6.77234375 10.44699219 -7.4921875 11.22460938 C-8.1625 11.94326172 -8.8328125 12.66191406 -9.5234375 13.40234375 C-10.14138184 14.06741943 -10.75932617 14.73249512 -11.39599609 15.41772461 C-13 17 -13 17 -15 18 C-14.67 16.02 -14.34 14.04 -14 12 C-12.35 11.67 -10.7 11.34 -9 11 C-8.67 10.01 -8.34 9.02 -8 8 C-7.34 8 -6.68 8 -6 8 C-6 6.35 -6 4.7 -6 3 C-4.03533587 1.93224776 -2.03144641 0.93446535 0 0 Z " fill="currentColor" transform="translate(401,375)"/>
<path d="M0 0 C1.94074425 7.04394414 -1.02376879 13.5713406 -4 20 C-4.56653769 21.3107622 -5.12913512 22.6232355 -5.6875 23.9375 C-6.120625 24.948125 -6.55375 25.95875 -7 27 C-8.32856028 23.3417547 -7.64879015 21.18126502 -6.34765625 17.578125 C-5.98349609 16.55332031 -5.61933594 15.52851563 -5.24414062 14.47265625 C-4.85419922 13.40917969 -4.46425781 12.34570312 -4.0625 11.25 C-3.67642578 10.17105469 -3.29035156 9.09210938 -2.89257812 7.98046875 C-1.9378746 5.31672804 -0.97339357 2.65695582 0 0 Z " fill="currentColor" transform="translate(45,161)"/>
<path d="M0 0 C7.26 0 14.52 0 22 0 C22 0.33 22 0.66 22 1 C20.33710938 1.18175781 20.33710938 1.18175781 18.640625 1.3671875 C17.17703766 1.53606296 15.71349843 1.70535572 14.25 1.875 C13.52039063 1.95363281 12.79078125 2.03226562 12.0390625 2.11328125 C6.72393428 2.7028014 6.72393428 2.7028014 2 5 C1.34 5.99 0.68 6.98 0 8 C0 5.36 0 2.72 0 0 Z " fill="currentColor" transform="translate(257,445)"/>
<path d="M0 0 C0 3 0 3 -1.875 5.1875 C-4 7 -4 7 -6 7 C-6.33 7.99 -6.66 8.98 -7 10 C-8.890625 11.3515625 -8.890625 11.3515625 -11.25 12.625 C-12.01828125 13.05039062 -12.7865625 13.47578125 -13.578125 13.9140625 C-16.05871929 15.02632897 -18.32315197 15.5728434 -21 16 C-18.40969182 13.13374834 -15.42105024 11.21562242 -12.1875 9.125 C-7.87755684 6.29349795 -3.85146283 3.42352252 0 0 Z " fill="currentColor" transform="translate(350,368)"/>
<path d="M0 0 C14.35801749 11.96501458 14.35801749 11.96501458 17 18 C13.26369914 17.45222723 11.89294387 16.08844515 9.5625 13.1875 C7.47920146 10.66962091 5.74822339 8.80843084 3.125 6.8125 C0.57266722 4.63551028 0.27364927 3.28379125 0 0 Z " fill="currentColor" transform="translate(384,86)"/>
<path d="M0 0 C0 0.66 0 1.32 0 2 C0.66 2 1.32 2 2 2 C2.33 1.34 2.66 0.68 3 0 C5.31 0 7.62 0 10 0 C10 0.66 10 1.32 10 2 C3.07 3.65 -3.86 5.3 -11 7 C-10.67 6.01 -10.34 5.02 -10 4 C-7.625 2.9375 -7.625 2.9375 -5 2 C-2 0 -2 0 0 0 Z " fill="currentColor" transform="translate(199,73)"/>
<path d="M0 0 C2 2 2 2 2.22705078 4.98095703 C2.21657715 6.22731934 2.20610352 7.47368164 2.1953125 8.7578125 C2.1924826 9.42086395 2.18965271 10.08391541 2.18673706 10.76705933 C2.17553435 12.88655583 2.15043051 15.00563104 2.125 17.125 C2.11497028 18.56119182 2.10584441 19.99739025 2.09765625 21.43359375 C2.075595 24.95586628 2.04106494 28.47789203 2 32 C3.98 32 5.96 32 8 32 C7.67 32.66 7.34 33.32 7 34 C5.02 34 3.04 34 1 34 C-0.47905238 31.04189524 -0.12190903 28.0452845 -0.09765625 24.8046875 C-0.0962413 24.09724396 -0.09482635 23.38980042 -0.09336853 22.66091919 C-0.087766 20.39890331 -0.07521318 18.13698602 -0.0625 15.875 C-0.05748532 14.34244935 -0.05292236 12.80989714 -0.04882812 11.27734375 C-0.03779577 7.51819112 -0.02052952 3.75911228 0 0 Z " fill="currentColor" transform="translate(258,373)"/>
<path d="M0 0 C6.03331362 4.98404168 11.5184171 10.41915303 17 16 C16.01 16.33 15.02 16.66 14 17 C13.67 16.01 13.34 15.02 13 14 C12.34 14 11.68 14 11 14 C10.34 13.01 9.68 12.02 9 11 C6.94996045 9.80767387 6.94996045 9.80767387 5 9 C5 8.01 5 7.02 5 6 C4.01 6.33 3.02 6.66 2 7 C1.34 4.69 0.68 2.38 0 0 Z " fill="currentColor" transform="translate(112,349)"/>
<path d="M0 0 C3.63763256 1.91454345 5.52526069 3.14143551 7 7 C7.30078125 9.69140625 7.30078125 9.69140625 7.3125 12.5625 C7.32925781 13.51253906 7.34601563 14.46257813 7.36328125 15.44140625 C7 18 7 18 4 21 C4 15.72 4 10.44 4 5 C3.34 5 2.68 5 2 5 C2 4.34 2 3.68 2 3 C1.34 3 0.68 3 0 3 C0 2.01 0 1.02 0 0 Z " fill="currentColor" transform="translate(305,46)"/>
<path d="M0 0 C5.17935061 1.46828943 9.34373412 3.81491263 13.875 6.625 C14.90753906 7.25535156 14.90753906 7.25535156 15.9609375 7.8984375 C17.64391658 8.92692472 19.32242532 9.962721 21 11 C20.34 11.66 19.68 12.32 19 13 C18.34 12.67 17.68 12.34 17 12 C17 11.34 17 10.68 17 10 C15.948125 9.8453125 15.948125 9.8453125 14.875 9.6875 C10.02879806 8.52862562 6.42055601 6.58343963 3 3 C2.01 2.67 1.02 2.34 0 2 C0 1.34 0 0.68 0 0 Z " fill="currentColor" transform="translate(319,207)"/>
<path d="M0 0 C1.05445313 0.00644531 2.10890625 0.01289062 3.1953125 0.01953125 C5.875 0.1875 5.875 0.1875 7.875 1.1875 C7.875 1.8475 7.875 2.5075 7.875 3.1875 C2.265 3.1875 -3.345 3.1875 -9.125 3.1875 C-9.125 3.8475 -9.125 4.5075 -9.125 5.1875 C-10.775 5.5175 -12.425 5.8475 -14.125 6.1875 C-9.60041099 1.33972606 -6.67321396 -0.09017857 0 0 Z " fill="currentColor" transform="translate(346.125,61.8125)"/>
<path d="M0 0 C0.99 0 1.98 0 3 0 C4.1875 1.625 4.1875 1.625 5 4 C3.625 7.25 3.625 7.25 2 10 C1.01 9.67 0.02 9.34 -1 9 C-1.66 10.32 -2.32 11.64 -3 13 C-4 11 -4 11 -3.22265625 8.3984375 C-2.83980469 7.40070313 -2.45695313 6.40296875 -2.0625 5.375 C-1.68222656 4.37210937 -1.30195313 3.36921875 -0.91015625 2.3359375 C-0.60980469 1.56507813 -0.30945313 0.79421875 0 0 Z " fill="currentColor" transform="translate(211,287)"/>
<path d="M0 0 C0.99 0.33 1.98 0.66 3 1 C3 1.66 3 2.32 3 3 C2.34 3 1.68 3 1 3 C1 3.66 1 4.32 1 5 C1.66 5 2.32 5 3 5 C3.33 6.32 3.66 7.64 4 9 C-0.59621922 7.5129879 -3.46972347 5.20187872 -7 2 C-7 1.67 -7 1.34 -7 1 C-5.5459375 1.0309375 -5.5459375 1.0309375 -4.0625 1.0625 C-1.12534105 1.35618499 -1.12534105 1.35618499 0 0 Z " fill="currentColor" transform="translate(116,402)"/>
<path d="M0 0 C0.33 0 0.66 0 1 0 C0.44636539 8.02770189 -1.65687944 15.33854067 -4 23 C-5.92236145 16.6114003 -4.34703171 10.10228244 -2 4 C-1.34 4 -0.68 4 0 4 C0 2.68 0 1.36 0 0 Z " fill="currentColor" transform="translate(447,282)"/>
<path d="M0 0 C-2.58010196 1.48505869 -5.16377559 2.96317311 -7.75 4.4375 C-8.47960937 4.85837891 -9.20921875 5.27925781 -9.9609375 5.71289062 C-10.66992188 6.11572266 -11.37890625 6.51855469 -12.109375 6.93359375 C-12.75874023 7.30540771 -13.40810547 7.67722168 -14.07714844 8.06030273 C-16.03827134 9.0187032 -17.86964435 9.5503043 -20 10 C-20 9.34 -20 8.68 -20 8 C-19.01 8 -18.02 8 -17 8 C-17 7.34 -17 6.68 -17 6 C-15.02 5.67 -13.04 5.34 -11 5 C-11 4.34 -11 3.68 -11 3 C-10.34 3 -9.68 3 -9 3 C-9 2.34 -9 1.68 -9 1 C-2.25 -1.125 -2.25 -1.125 0 0 Z " fill="currentColor" transform="translate(359,253)"/>
<path d="M0 0 C0.2475 0.94875 0.495 1.8975 0.75 2.875 C1.66955467 6.08246095 1.66955467 6.08246095 4.0625 7.25 C4.701875 7.4975 5.34125 7.745 6 8 C6.33 8.66 6.66 9.32 7 10 C7.99 10.33 8.98 10.66 10 11 C9.67 11.99 9.34 12.98 9 14 C-1.55808656 5.738041 -1.55808656 5.738041 -6 1 C-1.125 0 -1.125 0 0 0 Z " fill="currentColor" transform="translate(230,469)"/>
<path d="M0 0 C7.81636537 1.91722169 7.81636537 1.91722169 10 5 C10 5.66 10 6.32 10 7 C10.598125 7.2475 11.19625 7.495 11.8125 7.75 C14.28647521 9.16370012 15.43370255 10.65055383 17 13 C12.98544787 11.26102321 9.67974734 8.60214985 6.25 5.9375 C5.64800781 5.47794922 5.04601562 5.01839844 4.42578125 4.54492188 C2.92968619 3.38977365 1.46204799 2.19794972 0 1 C0 0.67 0 0.34 0 0 Z " fill="currentColor" transform="translate(207,457)"/>
<path d="M0 0 C0.66 0 1.32 0 2 0 C0.61219205 3.89006773 -1.2152227 6.96558708 -3.625 10.3125 C-4.25664063 11.19550781 -4.88828125 12.07851562 -5.5390625 12.98828125 C-6.02117187 13.65214844 -6.50328125 14.31601563 -7 15 C-7.67578125 13.2890625 -7.67578125 13.2890625 -8 11 C-6.85546875 8.7109375 -6.85546875 8.7109375 -5.1875 6.375 C-4.64480469 5.59898437 -4.10210937 4.82296875 -3.54296875 4.0234375 C-2 2 -2 2 0 0 Z " fill="currentColor" transform="translate(103,140)"/>
<path d="M0 0 C0 0.99 0 1.98 0 3 C-1.64821244 4.03013277 -3.31503702 5.03114628 -5 6 C-5 6.66 -5 7.32 -5 8 C-12.50769231 7.38461538 -12.50769231 7.38461538 -15 5.4375 C-15.33 4.963125 -15.66 4.48875 -16 4 C-10.25 4.875 -10.25 4.875 -8 6 C-8 5.34 -8 4.68 -8 4 C-7.01 3.67 -6.02 3.34 -5 3 C-4.34 2.34 -3.68 1.68 -3 1 C-2.01 0.67 -1.02 0.34 0 0 Z " fill="currentColor" transform="translate(245,108)"/>
<path d="M0 0 C0 3.33333333 0 6.66666667 0 10 C-0.66 9.67 -1.32 9.34 -2 9 C-4.09821215 9.39938767 -4.09821215 9.39938767 -6 10 C-6 10.66 -6 11.32 -6 12 C-6.99 12.33 -7.98 12.66 -9 13 C-7.50923566 9.7173068 -5.61379679 7.06922559 -3.375 4.25 C-2.74335937 3.45078125 -2.11171875 2.6515625 -1.4609375 1.828125 C-0.97882813 1.22484375 -0.49671875 0.6215625 0 0 Z " fill="currentColor" transform="translate(78,107)"/>
<path d="M0 0 C5.33333333 4 10.66666667 8 16 12 C15.01 12.495 15.01 12.495 14 13 C11.96855359 12.06553465 9.96466413 11.06775224 8 10 C8 9.34 8 8.68 8 8 C7.01 8 6.02 8 5 8 C0 2.65116279 0 2.65116279 0 0 Z " fill="currentColor" transform="translate(276,23)"/>
<path d="M0 0 C0.33 0.66 0.66 1.32 1 2 C0.28735352 3.78759766 0.28735352 3.78759766 -0.87109375 5.9140625 C-1.28037109 6.67460937 -1.68964844 7.43515625 -2.11132812 8.21875 C-2.54896484 9.0128125 -2.98660156 9.806875 -3.4375 10.625 C-3.87126953 11.42679687 -4.30503906 12.22859375 -4.75195312 13.0546875 C-5.82756988 15.04044151 -6.91047213 17.0218546 -8 19 C-9.58533976 14.24398073 -7.00490521 10.97762936 -4.875 6.6875 C-4.25196065 5.45733836 -3.62762455 4.22782862 -3 3 C-2.34 3 -1.68 3 -1 3 C-0.67 2.01 -0.34 1.02 0 0 Z " fill="currentColor" transform="translate(433,326)"/>
<path d="M0 0 C4.875 0.875 4.875 0.875 6 2 C6.07244053 4.01964199 6.08377188 6.04167124 6.0625 8.0625 C6.05347656 9.16722656 6.04445313 10.27195313 6.03515625 11.41015625 C6.02355469 12.26480469 6.01195312 13.11945313 6 14 C5.34 13.67 4.68 13.34 4 13 C3.855625 11.948125 3.71125 10.89625 3.5625 9.8125 C2.9932122 5.95399377 1.89367366 3.37567913 0 0 Z " fill="currentColor" transform="translate(353,229)"/>
<path d="M0 0 C4.69159716 3.38772897 9.0299782 6.78185183 13 11 C8.44364936 9.72846029 5.64385954 7.95448071 2 5 C1.01 5 0.02 5 -1 5 C-1.33 3.68 -1.66 2.36 -2 1 C-1.34 0.67 -0.68 0.34 0 0 Z " fill="currentColor" transform="translate(371,75)"/>
<path d="M0 0 C0 0.99 0 1.98 0 3 C-1.38782485 3.8466034 -2.78569397 4.67675339 -4.1875 5.5 C-4.96480469 5.9640625 -5.74210937 6.428125 -6.54296875 6.90625 C-9.24103386 8.10729647 -11.0806982 8.20741043 -14 8 C-11.72402354 5.50447597 -9.39278822 3.93377014 -6.4375 2.3125 C-5.65246094 1.87550781 -4.86742187 1.43851562 -4.05859375 0.98828125 C-2 0 -2 0 0 0 Z " fill="currentColor" transform="translate(311,255)"/>
<path d="M0 0 C0.66 0.99 1.32 1.98 2 3 C-0.64 2.67 -3.28 2.34 -6 2 C-6.33 2.99 -6.66 3.98 -7 5 C-8.32 5 -9.64 5 -11 5 C-11 5.66 -11 6.32 -11 7 C-12.65 7 -14.3 7 -16 7 C-6.5049505 -0.86732673 -6.5049505 -0.86732673 0 0 Z " fill="currentColor" transform="translate(196,191)"/>
<path d="M0 0 C1.32 0.33 2.64 0.66 4 1 C2.26194659 2.36946622 0.50908767 3.72015954 -1.25 5.0625 C-2.22453125 5.81660156 -3.1990625 6.57070312 -4.203125 7.34765625 C-7 9 -7 9 -9.359375 8.74609375 C-9.90078125 8.49988281 -10.4421875 8.25367187 -11 8 C-10.34 7.01 -9.68 6.02 -9 5 C-8.01 5.33 -7.02 5.66 -6 6 C-6 5.34 -6 4.68 -6 4 C-4.02 3.01 -2.04 2.02 0 1 C0 0.67 0 0.34 0 0 Z " fill="currentColor" transform="translate(294,75)"/>
<path d="M0 0 C2.71224618 1.61268692 5.37352812 3.24901874 8 5 C8.36442233 6.66014616 8.69972883 8.32706064 9 10 C9.66 10.33 10.32 10.66 11 11 C9.02 11.66 7.04 12.32 5 13 C5 12.01 5 11.02 5 10 C5.66 10 6.32 10 7 10 C5.96905133 7.42262834 5.4891374 6.23715753 2.9375 5 C1 4 1 4 0.25 1.875 C0.1675 1.25625 0.085 0.6375 0 0 Z " fill="currentColor" transform="translate(268,17)"/>
<path d="M0 0 C4 4.5 4 4.5 4 9 C0.62496331 7.8141763 -1.64722731 6.72426311 -4 4 C-2.68 2.68 -1.36 1.36 0 0 Z " fill="currentColor" transform="translate(125,408)"/>
<path d="M0 0 C1.65 0.33 3.3 0.66 5 1 C4.34 2.32 3.68 3.64 3 5 C2.34 5 1.68 5 1 5 C0.67 5.66 0.34 6.32 0 7 C-2.475 6.01 -2.475 6.01 -5 5 C-5 4.34 -5 3.68 -5 3 C-4.360625 2.87625 -3.72125 2.7525 -3.0625 2.625 C-2.0415625 2.315625 -2.0415625 2.315625 -1 2 C-0.67 1.34 -0.34 0.68 0 0 Z " fill="currentColor" transform="translate(190,193)"/>
<path d="M0 0 C0.99 0 1.98 0 3 0 C4.71875 1.86328125 4.71875 1.86328125 6.5 4.3125 C8.53040233 7.07758738 10.49997199 9.64479069 13 12 C8.48548039 10.53942013 5.42147956 8.26941381 2 5 C0.625 2.1875 0.625 2.1875 0 0 Z " fill="currentColor" transform="translate(327,92)"/>
<path d="M0 0 C1.53422135 4.37352711 0.15338263 6.9077565 -1.7421875 10.9375 C-3.36898289 13.60504026 -5.13598491 14.80666038 -8 16 C-6.57250019 12.20950293 -4.83763458 8.72877544 -2.875 5.1875 C-2.33617187 4.21167969 -1.79734375 3.23585938 -1.2421875 2.23046875 C-0.83226562 1.49441406 -0.42234375 0.75835937 0 0 Z " fill="currentColor" transform="translate(394,312)"/>
<path d="M0 0 C0.66 0 1.32 0 2 0 C2 3.63 2 7.26 2 11 C2.99 11.33 3.98 11.66 5 12 C4.67 12.99 4.34 13.98 4 15 C4.87483915 17.16715557 4.87483915 17.16715557 6 19 C0.04134813 13.19413408 0.04134813 13.19413408 -0.09765625 9.1796875 C-0.08605469 8.08914062 -0.07445312 6.99859375 -0.0625 5.875 C-0.05347656 4.77929688 -0.04445313 3.68359375 -0.03515625 2.5546875 C-0.02355469 1.71164063 -0.01195312 0.86859375 0 0 Z " fill="currentColor" transform="translate(328,78)"/>
<path d="M0 0 C0.33 0 0.66 0 1 0 C1.33 2.64 1.66 5.28 2 8 C-0.475 9.485 -0.475 9.485 -3 11 C-3.5625 9.0625 -3.5625 9.0625 -4 7 C-3.67 6.67 -3.34 6.34 -3 6 C-3.66 5.34 -4.32 4.68 -5 4 C-4.01 3.67 -3.02 3.34 -2 3 C-1.34 2.01 -0.68 1.02 0 0 Z " fill="currentColor" transform="translate(308,60)"/>
<path d="M0 0 C-5.75929978 5.88183807 -5.75929978 5.88183807 -10.9375 6.375 C-12.4534375 6.189375 -12.4534375 6.189375 -14 6 C-10.33829808 1.75242578 -5.68114185 -1.89371395 0 0 Z " fill="currentColor" transform="translate(222,384)"/>
<path d="M0 0 C0 0.66 0 1.32 0 2 C-1.65 2.33 -3.3 2.66 -5 3 C-5.33 3.99 -5.66 4.98 -6 6 C-11.09915632 9.17280838 -11.09915632 9.17280838 -14.19921875 8.578125 C-14.79347656 8.38734375 -15.38773438 8.1965625 -16 8 C-13.71125827 6.66141476 -11.41930344 5.32898986 -9.125 4 C-8.47402344 3.6184375 -7.82304687 3.236875 -7.15234375 2.84375 C-2.2265625 0 -2.2265625 0 0 0 Z " fill="currentColor" transform="translate(150,215)"/>
<path d="M0 0 C2.15059309 3.53186832 2.3797728 6.66287993 2.625 10.75 C2.69976562 11.92046875 2.77453125 13.0909375 2.8515625 14.296875 C2.90054687 15.18890625 2.94953125 16.0809375 3 17 C-0.319186 12.021221 -1.42520528 6.95287395 -1 1 C-0.67 0.67 -0.34 0.34 0 0 Z " fill="currentColor" transform="translate(448,199)"/>
<path d="M0 0 C1.07365377 3.2209613 0.93405499 4.23714565 0.22265625 7.44921875 C0.03896484 8.29677734 -0.14472656 9.14433594 -0.33398438 10.01757812 C-0.53314453 10.89865234 -0.73230469 11.77972656 -0.9375 12.6875 C-1.13279297 13.58017578 -1.32808594 14.47285156 -1.52929688 15.39257812 C-2.01255202 17.59669306 -2.50302834 19.7989445 -3 22 C-3.33 22 -3.66 22 -4 22 C-3.67 16.39 -3.34 10.78 -3 5 C-2.34 5 -1.68 5 -1 5 C-0.67 3.35 -0.34 1.7 0 0 Z " fill="currentColor" transform="translate(78,192)"/>
<path d="M0 0 C1.48199902 0.44909061 2.96055236 0.90956564 4.4375 1.375 C5.26121094 1.63023437 6.08492188 1.88546875 6.93359375 2.1484375 C9 3 9 3 10 5 C8.02 5 6.04 5 4 5 C3.67 5.66 3.34 6.32 3 7 C2.34 7 1.68 7 1 7 C1 6.01 1 5.02 1 4 C0.34 4 -0.32 4 -1 4 C-0.67 2.68 -0.34 1.36 0 0 Z " fill="currentColor" transform="translate(288,190)"/>
<path d="M0 0 C3.59231271 3.4896752 7.01867949 6.96644873 10 11 C9.67 11.99 9.34 12.98 9 14 C7.48806095 12.42806337 5.99078579 10.84201199 4.5 9.25 C3.6646875 8.36828125 2.829375 7.4865625 1.96875 6.578125 C0 4 0 4 0 0 Z " fill="currentColor" transform="translate(365,123)"/>
<path d="M0 0 C1 4 1 4 -0.21484375 6.359375 C-0.78332031 7.14828125 -1.35179688 7.9371875 -1.9375 8.75 C-2.50339844 9.54921875 -3.06929688 10.3484375 -3.65234375 11.171875 C-4.09707031 11.77515625 -4.54179688 12.3784375 -5 13 C-5.99 12.67 -6.98 12.34 -8 12 C-5.36 8.04 -2.72 4.08 0 0 Z " fill="currentColor" transform="translate(68,120)"/>
<path d="M0 0 C-2.54692521 2.54692521 -5.17802035 3.65768848 -8.4375 5.1875 C-10.16806641 6.01314453 -10.16806641 6.01314453 -11.93359375 6.85546875 C-15 8 -15 8 -18 7 C-13.23896789 2.85997208 -6.44193508 -0.83121743 0 0 Z " fill="currentColor" transform="translate(175,86)"/>
<path d="M0 0 C0.66 0.33 1.32 0.66 2 1 C-1.57729872 5.66132863 -5.10867301 8.73911534 -10 12 C-10.66 11.67 -11.32 11.34 -12 11 C-8.17426612 7.07503959 -4.38002676 3.31820209 0 0 Z " fill="currentColor" transform="translate(108,77)"/>
<path d="M0 0 C0.66 0 1.32 0 2 0 C-1.07517084 10.55808656 -1.07517084 10.55808656 -3 15 C-3.66 15 -4.32 15 -5 15 C-5 13.68 -5 12.36 -5 11 C-4.34 11 -3.68 11 -3 11 C-2.86722656 10.28972656 -2.73445312 9.57945312 -2.59765625 8.84765625 C-2.42105469 7.92855469 -2.24445313 7.00945312 -2.0625 6.0625 C-1.88847656 5.14597656 -1.71445313 4.22945313 -1.53515625 3.28515625 C-1 1 -1 1 0 0 Z " fill="currentColor" transform="translate(241,266)"/>
<path d="M0 0 C7.92 3.96 7.92 3.96 16 8 C11.82366356 9.39211215 10.21039485 7.9535579 6.3125 6.0625 C5.13300781 5.49660156 3.95351562 4.93070312 2.73828125 4.34765625 C1.83464844 3.90292969 0.93101562 3.45820313 0 3 C0 2.01 0 1.02 0 0 Z " fill="currentColor" transform="translate(169,253)"/>
<path d="M0 0 C0 1.65 0 3.3 0 5 C-2.31 5.66 -4.62 6.32 -7 7 C-6.649375 6.21625 -6.29875 5.4325 -5.9375 4.625 C-5.628125 3.75875 -5.31875 2.8925 -5 2 C-5.33 1.34 -5.66 0.68 -6 0 C-3 -1 -3 -1 0 0 Z " fill="currentColor" transform="translate(359,247)"/>
<path d="M0 0 C0.33 0.66 0.66 1.32 1 2 C3.02463255 2.65213292 3.02463255 2.65213292 5 3 C4.01 3.495 4.01 3.495 3 4 C2.60786962 6.55491823 2.60786962 6.55491823 2.5 9.5 C2.34375 12.53125 2.34375 12.53125 2 15 C1.01 15.495 1.01 15.495 0 16 C0 10.72 0 5.44 0 0 Z " fill="currentColor" transform="translate(124,228)"/>
<path d="M0 0 C5.51561369 2.88037604 10.36290866 5.83850777 15 10 C12 10 12 10 9 9 C9 8.34 9 7.68 9 7 C8.2575 6.71125 7.515 6.4225 6.75 6.125 C4.43260203 5.17697356 2.22082885 4.15154089 0 3 C0 2.01 0 1.02 0 0 Z " fill="currentColor" transform="translate(355,64)"/>
<path d="M0 0 C0 1.32 0 2.64 0 4 C-3.3 4.33 -6.6 4.66 -10 5 C-10.33 4.34 -10.66 3.68 -11 3 C-9.73160474 2.49384702 -8.46016898 1.99530901 -7.1875 1.5 C-6.12595703 1.08234375 -6.12595703 1.08234375 -5.04296875 0.65625 C-3 0 -3 0 0 0 Z " fill="currentColor" transform="translate(290,440)"/>
<path d="M0 0 C-1.32 0.99 -2.64 1.98 -4 3 C-2.35 3.99 -0.7 4.98 1 6 C-1 7 -1 7 -4.125 6.0625 C-5.07375 5.711875 -6.0225 5.36125 -7 5 C-7 3.35 -7 1.7 -7 0 C-3.86650268 -1.04449911 -3.01031744 -0.93423645 0 0 Z " fill="currentColor" transform="translate(152,238)"/>
<path d="M0 0 C-0.33 1.32 -0.66 2.64 -1 4 C-1.33 3.67 -1.66 3.34 -2 3 C-4.52195967 2.60056824 -7.02963656 2.24920152 -9.5625 1.9375 C-10.27341797 1.84662109 -10.98433594 1.75574219 -11.71679688 1.66210938 C-13.47738403 1.43760497 -15.23863478 1.21831603 -17 1 C-17 0.67 -17 0.34 -17 0 C-14.9174133 -0.19561869 -12.83388144 -0.38119313 -10.75 -0.5625 C-9.58984375 -0.66691406 -8.4296875 -0.77132812 -7.234375 -0.87890625 C-4.48128523 -0.98198087 -2.580018 -0.86213473 0 0 Z " fill="currentColor" transform="translate(278,172)"/>
<path d="M0 0 C3.25326479 3.16289633 6.36725392 6.29465367 9 10 C9 10.99 9 11.98 9 13 C8.34 13 7.68 13 7 13 C5.81640625 11.3203125 5.81640625 11.3203125 4.5625 9.125 C2.82669206 6.08869645 2.01345998 5.00897332 -1 3 C-0.67 2.01 -0.34 1.02 0 0 Z " fill="currentColor" transform="translate(102,336)"/>
<path d="M0 0 C3.42931954 3.7559214 4.56429083 8.23466745 6 13 C3.5625 11.5625 3.5625 11.5625 1 9 C0.26848111 6.00695442 0.07226313 3.07446787 0 0 Z " fill="currentColor" transform="translate(85,305)"/>
<path d="M0 0 C0.33 0 0.66 0 1 0 C1.45356243 6.46326465 0.59378942 9.60931587 -3 15 C-3.66 15 -4.32 15 -5 15 C-3.33333333 10 -1.66666667 5 0 0 Z " fill="currentColor" transform="translate(226,247)"/>
<path d="M0 0 C0.66 0.33 1.32 0.66 2 1 C1.67 2.32 1.34 3.64 1 5 C-2.28696233 5.79953138 -3.71023192 6.09658936 -7 5 C-7 4.34 -7 3.68 -7 3 C-4.69631264 1.93347808 -2.35981813 0.93578995 0 0 Z " fill="currentColor" transform="translate(206,393)"/>
<path d="M0 0 C0.66 0.33 1.32 0.66 2 1 C2 1.66 2 2.32 2 3 C1.01 3 0.02 3 -1 3 C-1 2.34 -1 1.68 -1 1 C-5.02992782 1.55312735 -9.02022924 2.1558062 -13 3 C-8.92091054 -1.46757417 -5.75766694 -1.04684854 0 0 Z " fill="currentColor" transform="translate(251,366)"/>
<path d="M0 0 C1.82421875 0.2265625 1.82421875 0.2265625 4 1 C5.51953125 2.9609375 5.51953125 2.9609375 6.8125 5.375 C7.25207031 6.16648437 7.69164063 6.95796875 8.14453125 7.7734375 C9 10 9 10 8 13 C6.66388095 11.0226631 5.33100742 9.04327287 4 7.0625 C3.6184375 6.49853516 3.236875 5.93457031 2.84375 5.35351562 C0 1.11328125 0 1.11328125 0 0 Z " fill="currentColor" transform="translate(57,343)"/>
<path d="M0 0 C0.33 0 0.66 0 1 0 C0.63495936 5.66442374 -0.0554321 10.00703705 -3 15 C-3.66 15 -4.32 15 -5 15 C-1.92482916 4.44191344 -1.92482916 4.44191344 0 0 Z " fill="currentColor" transform="translate(220,263)"/>
<path d="M0 0 C1 2 1 2 0.00390625 5.2578125 C-0.46889984 6.5497052 -0.94971969 7.83868638 -1.4375 9.125 C-1.68048828 9.78371094 -1.92347656 10.44242188 -2.17382812 11.12109375 C-2.77578321 12.74991338 -3.38702412 14.37529575 -4 16 C-5.3057939 11.80674634 -4.33775337 9.16189938 -3 5 C-2.835 4.21625 -2.67 3.4325 -2.5 2.625 C-2.335 2.08875 -2.17 1.5525 -2 1 C-1.34 0.67 -0.68 0.34 0 0 Z " fill="currentColor" transform="translate(271,190)"/>
<path d="M0 0 C-1.75 3.875 -1.75 3.875 -4 5 C-4.7425 6.2375 -4.7425 6.2375 -5.5 7.5 C-7 10 -7 10 -9 11 C-8.72482232 6.32197941 -6.66806114 4.25361247 -3.47265625 1.13671875 C-2 0 -2 0 0 0 Z " fill="currentColor" transform="translate(89,97)"/>
<path d="M0 0 C0.99 0.33 1.98 0.66 3 1 C1.68 1.99 0.36 2.98 -1 4 C-0.67 4.66 -0.34 5.32 0 6 C-5.75 9 -5.75 9 -8 9 C-8 8.34 -8 7.68 -8 7 C-7.01 7 -6.02 7 -5 7 C-4.731875 6.21625 -4.46375 5.4325 -4.1875 4.625 C-3 2 -3 2 0 0 Z " fill="currentColor" transform="translate(159,89)"/>
<path d="M0 0 C0.99 0 1.98 0 3 0 C4.0073108 1.32781878 5.00612666 2.66209359 6 4 C6.845625 4.495 7.69125 4.99 8.5625 5.5 C11.19080689 7.11741962 11.92500657 8.16592641 13 11 C9.54691313 9.48729451 7.04375621 7.45279358 4.25 4.9375 C3.45078125 4.22464844 2.6515625 3.51179688 1.828125 2.77734375 C1.22484375 2.19082031 0.6215625 1.60429687 0 1 C0 0.67 0 0.34 0 0 Z " fill="currentColor" transform="translate(96,392)"/>
<path d="M0 0 C0 4.02301077 -1.32422888 5.04256877 -4 8 C-5.94943557 9.74498257 -7.95058713 11.36978522 -10 13 C-10.66 12.67 -11.32 12.34 -12 12 C-8.04 8.04 -4.08 4.08 0 0 Z " fill="currentColor" transform="translate(371,348)"/>
<path d="M0 0 C2.94721162 2.74395564 5.19168608 5.38337216 7 9 C6.67 9.66 6.34 10.32 6 11 C5.01 10.34 4.02 9.68 3 9 C3 8.01 3 7.02 3 6 C2.34 6 1.68 6 1 6 C0.67 4.02 0.34 2.04 0 0 Z " fill="currentColor" transform="translate(91,319)"/>
<path d="M0 0 C0.99 0 1.98 0 3 0 C3 0.99 3 1.98 3 3 C3.99 3.33 4.98 3.66 6 4 C7.25 6.375 7.25 6.375 8 9 C7.67 9.99 7.34 10.98 7 12 C5.82767315 10.3790787 4.6622923 8.75313167 3.5 7.125 C2.8503125 6.22007812 2.200625 5.31515625 1.53125 4.3828125 C0 2 0 2 0 0 Z " fill="currentColor" transform="translate(376,138)"/>
<path d="M0 0 C2.70206912 2.70206912 3.90377166 4.72978589 4.1953125 8.578125 C4.16050781 9.90070313 4.16050781 9.90070313 4.125 11.25 C4.10695313 12.14203125 4.08890625 13.0340625 4.0703125 13.953125 C4.03550781 14.96632813 4.03550781 14.96632813 4 16 C2.06757715 12.65479742 1.4536147 9.55232518 0.875 5.75 C0.70742188 4.67234375 0.53984375 3.5946875 0.3671875 2.484375 C0.24601562 1.66453125 0.12484375 0.8446875 0 0 Z " fill="currentColor" transform="translate(33,276)"/>
<path d="M0 0 C0.65234375 1.734375 0.65234375 1.734375 1 4 C0.00390625 6.140625 0.00390625 6.140625 -1.4375 8.25 C-1.91058594 8.95640625 -2.38367188 9.6628125 -2.87109375 10.390625 C-3.24363281 10.92171875 -3.61617187 11.4528125 -4 12 C-4.33 11.34 -4.66 10.68 -5 10 C-4.2578125 7.87109375 -4.2578125 7.87109375 -3.125 5.4375 C-2.75632813 4.63183594 -2.38765625 3.82617188 -2.0078125 2.99609375 C-1 1 -1 1 0 0 Z " fill="currentColor" transform="translate(232,235)"/>
<path d="M0 0 C0.66 0 1.32 0 2 0 C2.37211538 6.57403846 2.37211538 6.57403846 0.48828125 8.73046875 C-0.00285156 9.14941406 -0.49398437 9.56835938 -1 10 C-1.02689216 8.52093108 -1.04634621 7.04172517 -1.0625 5.5625 C-1.07410156 4.73878906 -1.08570313 3.91507812 -1.09765625 3.06640625 C-1 1 -1 1 0 0 Z " fill="currentColor" transform="translate(172,416)"/>
<path d="M0 0 C3.59478807 3.32850747 6.22364768 6.98971331 9 11 C8.67 11.66 8.34 12.32 8 13 C7.731875 12.360625 7.46375 11.72125 7.1875 11.0625 C6.11332248 8.66868314 6.11332248 8.66868314 3 8 C0 2.77777778 0 2.77777778 0 0 Z " fill="currentColor" transform="translate(408,112)"/>
<path d="M0 0 C0.66 0 1.32 0 2 0 C0.54955729 4.10958767 -1.51110752 7.43258745 -4 11 C-5 9 -5 9 -4.25 6.4375 C-3 4 -3 4 0 3 C0 2.01 0 1.02 0 0 Z " fill="currentColor" transform="translate(421,346)"/>
<path d="M0 0 C4.1666604 0.47348414 6.92884715 1.04696841 10 4 C10 4.66 10 5.32 10 6 C6.40992874 4.66654496 3.20429093 3.1056769 0 1 C0 0.67 0 0.34 0 0 Z " fill="currentColor" transform="translate(149,266)"/>
<path d="M0 0 C4.35522853 0.50642192 7.44239635 1.38411497 11 4 C11 4.66 11 5.32 11 6 C6.95743617 4.77782954 3.50711041 3.37245704 0 1 C0 0.67 0 0.34 0 0 Z " fill="currentColor" transform="translate(318,230)"/>
<path d="M0 0 C-1.10699901 3.21029714 -2.01603825 4.00968977 -5 5.8125 C-5.99 6.204375 -6.98 6.59625 -8 7 C-8.66 6.67 -9.32 6.34 -10 6 C-7.35570758 3.077361 -4.105808 0 0 0 Z " fill="currentColor" transform="translate(144,55)"/>
<path d="M0 0 C0.99 0.33 1.98 0.66 3 1 C0.69 3.97 -1.62 6.94 -4 10 C-4 6.25763057 -2.71559825 2.71559825 0 0 Z " fill="currentColor" transform="translate(413,358)"/>
<path d="M0 0 C4.455 0.99 4.455 0.99 9 2 C9 2.99 9 3.98 9 5 C9.66 5 10.32 5 11 5 C10.67 5.66 10.34 6.32 10 7 C8.33073546 6.02526874 6.66464358 5.04510211 5 4.0625 C4.071875 3.51722656 3.14375 2.97195313 2.1875 2.41015625 C1.465625 1.94480469 0.74375 1.47945313 0 1 C0 0.67 0 0.34 0 0 Z " fill="currentColor" transform="translate(177,282)"/>
<path d="M0 0 C7.625 1.75 7.625 1.75 11 4 C11 4.66 11 5.32 11 6 C6.95743617 4.77782954 3.50711041 3.37245704 0 1 C0 0.67 0 0.34 0 0 Z " fill="currentColor" transform="translate(184,263)"/>
<path d="M0 0 C1 2 1 2 0.22265625 4.6015625 C-0.16019531 5.59929687 -0.54304688 6.59703125 -0.9375 7.625 C-1.50791016 9.12933594 -1.50791016 9.12933594 -2.08984375 10.6640625 C-2.39019531 11.43492187 -2.69054687 12.20578125 -3 13 C-4.25686099 9.22941703 -3.82745636 6.86146303 -3 3 C-1.4375 1.0625 -1.4375 1.0625 0 0 Z " fill="currentColor" transform="translate(276,176)"/>
<path d="M0 0 C-1.55500981 3.81684226 -4.03595495 6.19195732 -7 9 C-6.53149863 4.78348764 -4.94559315 0 0 0 Z " fill="currentColor" transform="translate(181,411)"/>
<path d="M0 0 C3.82946843 1.45255699 5.12050295 3.42895561 7 7 C4.6875 6.8125 4.6875 6.8125 2 6 C0.1875 3.4375 0.1875 3.4375 -1 1 C-0.67 0.67 -0.34 0.34 0 0 Z " fill="currentColor" transform="translate(130,367)"/>
<path d="M0 0 C2.31 0.33 4.62 0.66 7 1 C6.67 1.99 6.34 2.98 6 4 C6.99 4.99 7.98 5.98 9 7 C8.01 7 7.02 7 6 7 C5.7525 6.360625 5.505 5.72125 5.25 5.0625 C4.18437567 2.81258459 4.18437567 2.81258459 1.875 2.25 C0.946875 2.12625 0.946875 2.12625 0 2 C0 1.34 0 0.68 0 0 Z " fill="currentColor" transform="translate(124,365)"/>
<path d="M0 0 C2.475 0.495 2.475 0.495 5 1 C4.67 3.31 4.34 5.62 4 8 C3.01 8.33 2.02 8.66 1 9 C1.020625 8.2575 1.04125 7.515 1.0625 6.75 C1.00671312 4.29537721 0.6930096 2.33890739 0 0 Z " fill="currentColor" transform="translate(432,158)"/>
<path d="M0 0 C-1.26418246 0.69965443 -2.53665402 1.38434763 -3.8125 2.0625 C-4.52019531 2.44535156 -5.22789062 2.82820313 -5.95703125 3.22265625 C-8 4 -8 4 -11 3 C-7.18178484 -0.02823961 -4.81391924 -1.49397494 0 0 Z " fill="currentColor" transform="translate(335,428)"/>
<path d="M0 0 C-3.30012079 1.41433748 -6.41411676 2.61233695 -10 3 C-10.66 2.34 -11.32 1.68 -12 1 C-3.96428571 -1.27678571 -3.96428571 -1.27678571 0 0 Z " fill="currentColor" transform="translate(289,404)"/>
<path d="M0 0 C0.33 0 0.66 0 1 0 C1 3.96 1 7.92 1 12 C0.01 12 -0.98 12 -2 12 C-2 10.35 -2 8.7 -2 7 C-1.34 7 -0.68 7 0 7 C0 4.69 0 2.38 0 0 Z " fill="currentColor" transform="translate(154,392)"/>
<path d="M0 0 C0.66 0 1.32 0 2 0 C1.01 3.3 0.02 6.6 -1 10 C-1.33 10 -1.66 10 -2 10 C-2.25 3.375 -2.25 3.375 0 0 Z " fill="currentColor" transform="translate(235,282)"/>
<path d="M0 0 C0.66 0.33 1.32 0.66 2 1 C2 1.99 2 2.98 2 4 C-0.875 4.625 -0.875 4.625 -4 5 C-4.66 4.34 -5.32 3.68 -6 3 C-4.03533587 1.93224776 -2.03144641 0.93446535 0 0 Z " fill="currentColor" transform="translate(192,283)"/>
<path d="M0 0 C0.33 0.99 0.66 1.98 1 3 C-4.2734375 6.22265625 -4.2734375 6.22265625 -6 7 C-6.66 6.67 -7.32 6.34 -8 6 C-5.51047079 3.33264727 -3.36591866 1.44253657 0 0 Z " fill="currentColor" transform="translate(295,263)"/>
<path d="M0 0 C0.33 0.99 0.66 1.98 1 3 C0.34 3 -0.32 3 -1 3 C-1 3.66 -1 4.32 -1 5 C-3.64 5.66 -6.28 6.32 -9 7 C-6.3765992 4.08511023 -3.28183606 2.11496102 0 0 Z " fill="currentColor" transform="translate(335,240)"/>
<path d="M0 0 C0.66 0.33 1.32 0.66 2 1 C-0.00979059 4.01468588 -0.70736015 4.83789182 -4 6 C-6.1328125 5.546875 -6.1328125 5.546875 -8 5 C-6.71475739 4.13619741 -5.42157581 3.28419631 -4.125 2.4375 C-3.04605469 1.72400391 -3.04605469 1.72400391 -1.9453125 0.99609375 C-1.30335938 0.66738281 -0.66140625 0.33867187 0 0 Z " fill="currentColor" transform="translate(158,209)"/>
<path d="M0 0 C0.66 0 1.32 0 2 0 C1.75 2.375 1.75 2.375 1 5 C-1.0625 6.3125 -1.0625 6.3125 -3 7 C-3 3.47967572 -2.29648649 2.5614657 0 0 Z " fill="currentColor" transform="translate(257,475)"/>
<path d="M0 0 C-3.20336822 2.83374881 -5.78087253 3.5205537 -10 4 C-10 3.34 -10 2.68 -10 2 C-6.49223216 0.39644899 -3.85645121 -0.22036864 0 0 Z " fill="currentColor" transform="translate(324,432)"/>
<path d="M0 0 C3.93673644 1.31224548 6.22719294 2.91910327 9 6 C8.67 6.99 8.34 7.98 8 9 C6.66368764 7.6905332 5.33102075 6.37734515 4 5.0625 C3.2575 4.33160156 2.515 3.60070312 1.75 2.84765625 C0 1 0 1 0 0 Z " fill="currentColor" transform="translate(83,379)"/>
<path d="M0 0 C0.33 0 0.66 0 1 0 C1 1.98 1 3.96 1 6 C-0.65 6.66 -2.3 7.32 -4 8 C-2.87548273 5.0280615 -1.77706209 2.66559313 0 0 Z " fill="currentColor" transform="translate(383,331)"/>
<path d="M0 0 C0.33 0.66 0.66 1.32 1 2 C1.66 2 2.32 2 3 2 C3.33 4.31 3.66 6.62 4 9 C3.01 9.495 3.01 9.495 2 10 C0.68373308 6.38026598 0 3.90432869 0 0 Z " fill="currentColor" transform="translate(37,292)"/>
<path d="M0 0 C0.66 0.33 1.32 0.66 2 1 C2 2.98 2 4.96 2 7 C2.99 7.33 3.98 7.66 5 8 C4.01 8.495 4.01 8.495 3 9 C0.375 7.5625 0.375 7.5625 -2 6 C-1.34 5.67 -0.68 5.34 0 5 C0 3.35 0 1.7 0 0 Z " fill="currentColor" transform="translate(124,246)"/>
<path d="M0 0 C4.05281712 1.22527029 7.44360764 2.69880494 11 5 C8 6 8 6 5.95703125 5.22265625 C5.24933594 4.83980469 4.54164063 4.45695313 3.8125 4.0625 C3.09707031 3.68222656 2.38164062 3.30195313 1.64453125 2.91015625 C1.10183594 2.60980469 0.55914062 2.30945313 0 2 C0 1.34 0 0.68 0 0 Z " fill="currentColor" transform="translate(340,219)"/>
<path d="M0 0 C0.66 0.33 1.32 0.66 2 1 C0.875 2.9375 0.875 2.9375 -1 5 C-4.1875 5.75 -4.1875 5.75 -7 6 C-4.74259377 3.66475218 -2.7194239 1.81294927 0 0 Z " fill="currentColor" transform="translate(206,390)"/>
<path d="M0 0 C1.32 0 2.64 0 4 0 C5.0625 1.8125 5.0625 1.8125 6 4 C5.67 4.99 5.34 5.98 5 7 C0 1.125 0 1.125 0 0 Z " fill="currentColor" transform="translate(71,364)"/>
<path d="M0 0 C-6.75 4 -6.75 4 -9 4 C-8 1 -8 1 -5.625 -0.25 C-3 -1 -3 -1 0 0 Z " fill="currentColor" transform="translate(178,224)"/>
<path d="M0 0 C0.6875 1.6875 0.6875 1.6875 1 4 C-0.3125 6.75 -0.3125 6.75 -2 9 C-2.66 9 -3.32 9 -4 9 C-2.94124926 5.59687262 -1.99097846 2.98646769 0 0 Z " fill="currentColor" transform="translate(59,134)"/>
<path d="M0 0 C2.125 0.375 2.125 0.375 4 1 C1.64722731 3.72426311 -0.62496331 4.8141763 -4 6 C-2.84826645 3.53199953 -1.95216435 1.95216435 0 0 Z " fill="currentColor" transform="translate(93,90)"/>
<path d="M0 0 C4.31392226 0.4793247 6.16569547 1.7457985 9 5 C8.67 5.66 8.34 6.32 8 7 C6 5.625 6 5.625 4 4 C4 3.34 4 2.68 4 2 C2.68 2 1.36 2 0 2 C0 1.34 0 0.68 0 0 Z " fill="currentColor" transform="translate(266,20)"/>
<path d="M0 0 C0.66 0.33 1.32 0.66 2 1 C0.02 2.98 -1.96 4.96 -4 7 C-4.66 6.67 -5.32 6.34 -6 6 C-2.25 1.125 -2.25 1.125 0 0 Z " fill="currentColor" transform="translate(383,393)"/>
<path d="M0 0 C0 0.99 0 1.98 0 3 C-2 5 -2 5 -4.625 5.125 C-5.40875 5.08375 -6.1925 5.0425 -7 5 C-4.87219421 2.65941363 -2.88437779 1.29299694 0 0 Z " fill="currentColor" transform="translate(327,384)"/>
<path d="M0 0 C1.98 0 3.96 0 6 0 C6 1.98 6 3.96 6 6 C3.97945196 4.35830472 1.97956942 2.69088222 0 1 C0 0.67 0 0.34 0 0 Z " fill="currentColor" transform="translate(77,372)"/>
<path d="M0 0 C1.00000429 4.00001715 0.80688405 6.05523353 0 10 C-0.99 10 -1.98 10 -3 10 C-2.01 6.7 -1.02 3.4 0 0 Z " fill="currentColor" transform="translate(45,161)"/>
<path d="M0 0 C3.9492568 0.55105909 7.34920174 1.38935371 11 3 C11 3.33 11 3.66 11 4 C3.49230769 3.38461538 3.49230769 3.38461538 1 1.4375 C0.67 0.963125 0.34 0.48875 0 0 Z " fill="currentColor" transform="translate(229,112)"/>
<path d="M0 0 C0.268125 0.5775 0.53625 1.155 0.8125 1.75 C1.95053246 4.05747896 1.95053246 4.05747896 3.625 6.125 C5 8 5 8 5 10 C2 9 2 9 0.8125 7.25 C-0.10819096 4.70039426 -0.14948718 2.69076919 0 0 Z " fill="currentColor" transform="translate(224,102)"/>
<path d="M0 0 C2.64 1.98 5.28 3.96 8 6 C7.01 6.495 7.01 6.495 6 7 C3.4375 5.8125 3.4375 5.8125 1 4 C0.67 2.68 0.34 1.36 0 0 Z " fill="currentColor" transform="translate(376,79)"/>
<path d="M0 0 C0.66 0.33 1.32 0.66 2 1 C1.67 1.66 1.34 2.32 1 3 C-1.06640625 3.4140625 -1.06640625 3.4140625 -3.5625 3.625 C-4.38878906 3.69976562 -5.21507812 3.77453125 -6.06640625 3.8515625 C-7.02353516 3.92503906 -7.02353516 3.92503906 -8 4 C-5.31143836 2.20762558 -3.0466145 1.01553817 0 0 Z " fill="currentColor" transform="translate(165,45)"/>
<path d="M0 0 C0.66 0.66 1.32 1.32 2 2 C0.25 3.5625 0.25 3.5625 -2 5 C-4.25 4.6875 -4.25 4.6875 -6 4 C-4.02 2.68 -2.04 1.36 0 0 Z " fill="currentColor" transform="translate(198,396)"/>
<path d="M0 0 C0.66 0.33 1.32 0.66 2 1 C-0.83430453 4.2542015 -2.68607774 5.5206753 -7 6 C-4.74259377 3.66475218 -2.7194239 1.81294927 0 0 Z " fill="currentColor" transform="translate(232,375)"/>
<path d="M0 0 C1.39195915 4.17587745 -0.17676781 6.13474776 -2 10 C-3.16909807 6.49270578 -2.85056945 4.55692677 -2 1 C-1.34 0.67 -0.68 0.34 0 0 Z " fill="currentColor" transform="translate(437,316)"/>
<path d="M0 0 C0.66 0.33 1.32 0.66 2 1 C-1.32307692 4.93846154 -1.32307692 4.93846154 -4.75 5.25 C-5.4925 5.1675 -6.235 5.085 -7 5 C-4.702779 3.25728062 -2.40133271 1.60088848 0 0 Z " fill="currentColor" transform="translate(167,204)"/>
<path d="M0 0 C4.10801767 1.18676066 5.89448334 1.89448334 9 5 C6.03 4.01 3.06 3.02 0 2 C0 1.34 0 0.68 0 0 Z " fill="currentColor" transform="translate(310,202)"/>
<path d="M0 0 C-0.33 0.66 -0.66 1.32 -1 2 C-1.99 2 -2.98 2 -4 2 C-4 2.66 -4 3.32 -4 4 C-5.65 4 -7.3 4 -9 4 C-4.5 0 -4.5 0 0 0 Z " fill="currentColor" transform="translate(189,194)"/>
<path d="M0 0 C-0.6875 1.9375 -0.6875 1.9375 -2 4 C-4.625 4.75 -4.625 4.75 -7 5 C-7 4.34 -7 3.68 -7 3 C-6.01 3 -5.02 3 -4 3 C-4 2.34 -4 1.68 -4 1 C-2 0 -2 0 0 0 Z " fill="currentColor" transform="translate(266,96)"/>
<path d="M0 0 C3.36720387 1.39332574 4.9859524 2.9789286 7 6 C5.35 6 3.7 6 2 6 C1.34 4.02 0.68 2.04 0 0 Z " fill="currentColor" transform="translate(375,82)"/>
<path d="M0 0 C0 3 0 3 -1.25 4.625 C-3.17415516 6.1368362 -4.60989418 6.58791279 -7 7 C-4.66666667 4.66666667 -2.33333333 2.33333333 0 0 Z " fill="currentColor" transform="translate(117,70)"/>
<path d="M0 0 C-2.5654594 2.5654594 -4.47686668 2.54046087 -8 3 C-7.67 2.01 -7.34 1.02 -7 0 C-4.3333581 -1.33332095 -2.83319697 -0.67102033 0 0 Z " fill="currentColor" transform="translate(160,52)"/>
<path d="M0 0 C3.057952 1.73559438 5.63379989 3.38472619 8 6 C5.21788056 5.62403791 3.4120716 5.32681541 1.1875 3.5625 C0 2 0 2 0 0 Z " fill="currentColor" transform="translate(268,17)"/>
</svg>
